<?xml version="1.0" encoding="utf-8"?>
<!-- Generator: Adobe Illustrator 16.0.0, SVG Export Plug-In . SVG Version: 6.00 Build 0)  -->
<!DOCTYPE svg PUBLIC "-//W3C//DTD SVG 1.0//EN" "http://www.w3.org/TR/2001/REC-SVG-20010904/DTD/svg10.dtd">
<svg version="1.0" id="레이어_1" xmlns="http://www.w3.org/2000/svg" xmlns:xlink="http://www.w3.org/1999/xlink" x="0px"
	 y="0px" width="414.02px" height="472.991px" viewBox="0 0 414.02 472.991" enable-background="new 0 0 414.02 472.991"
	 xml:space="preserve">
<g id="Layer3_15_FILL_00000146461576055400000590000017796482006646491043_">
	<path fill="#FFFFFF" d="M378.363,210.686c-31.455-3.46-42.866-20.305-34.232-50.531c26.614-18.468,45.741-23.137,57.381-14.007
		C416.201,159.468,408.484,180.981,378.363,210.686z"/>
</g>
<path fill="#040000" d="M379.74,215.823c-1.794,0.491-3.793,0.023-5.191-1.395c-2.062-2.09-2.038-5.456,0.053-7.517
	c24.078-23.746,28.943-37.788,28.784-45.386c-0.092-4.375-1.836-8.074-5.331-11.299c-11.914-9.107-34.25,2.737-50.922,14.305
	c-2.414,1.674-5.724,1.076-7.397-1.336c-1.674-2.412-1.075-5.724,1.336-7.397c29.032-20.147,49.864-24.667,63.692-13.823
	c0.099,0.079,0.196,0.16,0.289,0.245c5.792,5.251,8.807,11.672,8.961,19.083c0.299,14.287-10.151,31.682-31.948,53.177
	C381.394,215.143,380.59,215.591,379.74,215.823z"/>
<g id="Layer3_16_FILL_00000103980409979334618360000001338483491606664358_">
	<path fill="#FFFFFF" d="M33.633,103.457l45.495-50.416c43.302-24.61,90.55-36.046,141.744-34.308
		C242.92,5.073,261.2,1.841,275.713,9.04c14.386,7.155,17.485,21.443,9.298,42.864c32.041,27.115,59.378,62.286,82.012,105.515
		c36.434,77.86,34.467,153.766-5.9,227.718c-5.957,29.441-13.988,48.557-24.094,57.342l-0.886,0.76
		c-0.221,0.176-0.441,0.351-0.662,0.525c-8.893,7.188-17.996,9.676-27.31,7.465c-8.79-1.281-15.983-8.369-21.579-21.266
		c10.645-3.445,20.994-7.617,31.051-12.514c-10.057,4.896-20.406,9.068-31.051,12.514c-18.677,6.064-39.363,11.372-62.059,15.926
		c1.314-7.266-1.01-15.205-6.97-23.819c-5.821-8.384-12.726-14.976-20.712-19.775c7.986,4.8,14.891,11.392,20.712,19.775
		c5.96,8.614,8.284,16.554,6.97,23.819c-0.944,5.245-3.787,10.146-8.526,14.703c-11.264,10.866-29.187,9.3-53.769-4.699
		c-24.656-3.044-47.744-13.615-69.264-31.711c-46.024-38.832-72.855-95.453-80.493-169.865
		C9.26,202.943,16.31,152.656,33.633,103.457z"/>
</g>
<path fill="#040000" d="M323.412,456.138c-5.318,1.453-10.731,1.554-16.202,0.292c-9.476-1.472-17.329-8.195-23.395-20.012
	c-16.722,5.231-35.152,9.928-54.913,13.992c-1.617,4.992-4.689,9.685-9.169,13.989c-0.001,0.002-0.003,0.004-0.005,0.006
	c-12.959,12.49-32.858,11.347-59.153-3.396c-25.19-3.329-49.065-14.356-70.978-32.783c-0.006-0.005-0.011-0.009-0.017-0.015
	C42.695,388.65,14.993,330.333,7.242,254.87c-0.005-0.04-0.008-0.081-0.012-0.122c-0.005-0.053-0.009-0.104-0.012-0.155
	c-3.244-51.835,3.97-103.285,21.444-152.919c0.976-2.771,4.011-4.223,6.78-3.249c2.769,0.976,4.223,4.011,3.248,6.78
	C21.7,153.464,14.68,203.476,17.825,253.858c7.472,72.595,33.923,128.526,78.621,166.238c0.001,0.001,0.001,0.001,0.002,0.002
	c20.582,17.307,42.911,27.562,66.369,30.481c0.386,0.039,0.77,0.121,1.146,0.247c0.372,0.123,0.724,0.286,1.052,0.481
	c22.119,12.575,38.048,14.403,47.345,5.436c0.006-0.006,0.012-0.013,0.019-0.018c3.907-3.761,6.182-7.588,6.947-11.697
	c0.012-0.071,0.024-0.141,0.039-0.211c1.006-5.771-1.056-12.414-6.129-19.746c-5.356-7.717-11.777-13.855-19.079-18.244
	c-2.516-1.512-3.33-4.777-1.818-7.294c1.512-2.515,4.776-3.331,7.294-1.817c8.6,5.166,16.116,12.333,22.341,21.299
	c4.853,7.014,7.58,13.805,8.157,20.281c19.841-4.186,38.25-9.02,54.81-14.394c0.041-0.014,0.082-0.026,0.123-0.04
	c10.336-3.35,20.528-7.459,30.295-12.215c2.635-1.279,5.82-0.188,7.105,2.452c1.285,2.639,0.188,5.821-2.452,7.106
	c-8.403,4.092-17.11,7.727-25.954,10.838c4.262,7.721,9.25,12.053,14.87,12.894c0.091,0.013,0.183,0.027,0.274,0.044
	c0.101,0.02,0.2,0.041,0.299,0.066c7.667,1.801,15.082-0.304,22.668-6.43c0.016-0.013,0.031-0.025,0.046-0.037l1.38-1.147
	c9.136-7.951,16.65-26.203,22.336-54.254c0.053-0.298,0.132-0.594,0.238-0.885c0.106-0.293,0.237-0.572,0.389-0.835
	c39.248-71.971,41.178-146.897,5.743-222.701c-22.176-42.328-49.286-77.226-80.588-103.737c-0.28-0.227-0.535-0.479-0.761-0.753
	c-0.508-0.614-0.858-1.321-1.048-2.064c-0.189-0.736-0.223-1.518-0.077-2.294c0.065-0.352,0.167-0.698,0.305-1.035
	c9.392-24.665,0.658-32.412-6.738-36.092c-12.674-6.286-29.367-3.121-49.618,9.414c-0.46,0.293-0.982,0.515-1.507,0.661
	c-0.529,0.14-1.07,0.194-1.605,0.168c-49.93-1.683-96.652,9.628-138.863,33.619c-2.554,1.451-5.798,0.556-7.248-1.995
	c-1.45-2.552-0.557-5.797,1.995-7.248c43.516-24.731,91.599-36.52,142.948-35.049C242.514-0.558,262.23-3.62,278.117,4.26
	c0.008,0.004,0.017,0.008,0.025,0.013c11.337,5.647,22.515,18.188,13.152,45.963c31.222,27.115,58.281,62.311,80.463,104.669
	c0.02,0.039,0.04,0.077,0.06,0.116c0.027,0.054,0.053,0.107,0.077,0.161c36.884,78.852,34.975,156.829-5.682,231.773
	c-6.237,30.46-14.632,49.929-25.655,59.512c-0.013,0.011-0.026,0.022-0.04,0.034l-0.845,0.725c-0.042,0.037-0.085,0.072-0.128,0.108
	c-0.001,0,0,0.001-0.002,0.001c-0.023,0.02-0.047,0.038-0.071,0.058l-0.628,0.499C333.816,451.953,328.66,454.704,323.412,456.138z"
	/>
<g id="Layer3_17_FILL_00000032648872186695799080000015672803729893279620_">
	<path fill="#FFFFFF" d="M26.277,280.857c31.539-2.604,45.955,11.754,43.248,43.074c-22.601,23.207-40.485,31.439-53.654,24.697
		C-1.09,338.355,2.379,315.764,26.277,280.857z"/>
</g>
<path fill="#040000" d="M34.156,355.068c-7.579,2.071-14.453,1.492-20.701-1.706c-0.112-0.058-0.224-0.12-0.332-0.186
	c-6.687-4.05-10.871-9.778-12.438-17.023c-3.02-13.97,3.919-33.038,21.213-58.298c1.657-2.422,4.966-3.041,7.389-1.383
	c2.422,1.658,3.042,4.967,1.383,7.389c-19.104,27.904-21.199,42.617-19.594,50.045c0.925,4.279,3.343,7.576,7.389,10.076
	c13.434,6.666,33.1-9.22,47.259-23.758c2.047-2.104,5.413-2.147,7.516-0.1c2.104,2.049,2.147,5.413,0.1,7.516
	C58.532,342.845,45.551,351.954,34.156,355.068z"/>
<g id="Layer3_18_FILL_00000166671787516695483170000011589367269622394020_">
	<path fill="#EE8A78" d="M162.642,187.418c-3.002-10.987-1.365-21.514,4.911-31.582c6.313-10.078,15.436-16.748,27.369-20.009
		c11.97-3.271,23.217-2.169,33.741,3.307c10.561,5.466,17.342,13.692,20.345,24.679c3.003,10.986,1.348,21.519-4.965,31.596
		c-6.276,10.068-15.398,16.737-27.369,20.009c-11.934,3.261-23.181,2.159-33.741-3.307
		C172.408,206.636,165.645,198.404,162.642,187.418z"/>
</g>
<path fill="#EE8A78" d="M217.023,216.5c-12.174,3.327-23.813,2.184-34.596-3.397c-10.781-5.609-17.809-14.165-20.888-25.431
	c-3.079-11.266-1.38-22.207,5.048-32.518c6.447-10.292,15.887-17.196,28.06-20.523c12.21-3.336,23.85-2.193,34.598,3.399
	c10.814,5.598,17.86,14.149,20.939,25.415c3.079,11.267,1.361,22.213-5.104,32.535C238.673,206.259,229.232,213.164,217.023,216.5z
	 M195.271,136.91c-11.583,3.166-20.559,9.726-26.679,19.496c-6.064,9.728-7.671,20.039-4.772,30.643
	c2.898,10.605,9.524,18.665,19.696,23.957c10.237,5.299,21.302,6.381,32.885,3.216c11.617-3.175,20.593-9.734,26.678-19.494
	c6.102-9.741,7.726-20.056,4.827-30.66c-2.897-10.604-9.542-18.658-19.748-23.941C217.952,134.817,206.888,133.735,195.271,136.91z"
	/>
<g id="Layer3_19_FILL_00000085251403168097787040000000330080997833043645_">
	<path fill="#F8D2D0" d="M202.713,153.954l0.322-0.088c0.128,0.049,0.244,0.123,0.348,0.221c7.939,4.202,14.594,5.949,19.963,5.241
		c5.272,26.03,3.788,41.374-4.454,46.031c-9.998,4.969-20.557-7.273-31.675-36.726C192.695,166.081,197.861,161.187,202.713,153.954
		z"/>
</g>
<path fill="#040000" d="M218.373,211.221c-3.09,0.845-6.285,0.662-9.387-0.556c-8.635-3.392-16.595-14.689-24.892-35.411
	c-5.798,1.366-11.39,0.761-16.684-1.815c-2.64-1.284-3.738-4.465-2.454-7.105c1.285-2.64,4.467-3.738,7.104-2.455
	c4.001,1.947,8.251,1.911,12.988-0.104c4.536-2.137,8.996-6.438,13.255-12.788c0.773-1.153,1.921-1.902,3.171-2.207
	c1.108-0.343,2.31-0.326,3.465,0.116c0.463,0.177,0.899,0.405,1.305,0.682c6.575,3.432,11.99,4.948,16.106,4.511
	c0.129-0.03,0.259-0.056,0.39-0.076c3.5-0.547,6.088-2.458,8.162-6.007c1.48-2.535,4.735-3.388,7.271-1.909
	c2.535,1.481,3.389,4.736,1.908,7.271c-2.71,4.64-6.263,7.892-10.599,9.717c4.717,26.22,2.152,41.175-7.972,46.896
	c-0.081,0.046-0.164,0.09-0.249,0.132C220.314,210.585,219.349,210.955,218.373,211.221z M193.828,170.961
	c9.146,22.919,15.8,28.534,19.045,29.809c1.248,0.49,2.314,0.458,3.524-0.112c2.614-1.583,7.593-8.222,2.578-35.934
	c-4.362-0.317-9.151-1.693-14.468-4.153C201.135,164.96,197.563,168.435,193.828,170.961z"/>
<g id="Layer3_20_FILL_00000156560153026847615200000011270968274789797280_">
	<path fill="#FFFFFF" d="M30.146,60.586c-12.645,10.191-10.83,25.94,5.443,47.249c41.464,0.423,57.317-16.767,47.561-51.572
		C60.409,48.927,42.741,50.368,30.146,60.586z"/>
</g>
<path fill="#040000" d="M36.992,112.963c-2.025,0.554-4.274-0.13-5.628-1.902C8.592,81.242,16.318,64.903,26.81,56.448
	c14.01-11.365,33.518-13.132,57.972-5.243c2.794,0.902,4.328,3.897,3.427,6.691c-0.9,2.792-3.895,4.328-6.69,3.426
	c-20.814-6.715-36.973-5.576-48.023,3.392c-3.707,2.987-14.948,12.046,6.319,39.895c1.781,2.333,1.334,5.669-0.999,7.451
	C38.254,112.488,37.634,112.788,36.992,112.963z"/>
<g id="Layer3_21_FILL_00000176732970115466894890000015212611415742000296_">
	<path fill="#040000" d="M243.551,129.919c2.214,1.231,4.518,1.521,6.91,0.866c2.431-0.664,4.286-2.089,5.566-4.276
		c1.242-2.176,1.531-4.479,0.866-6.91c-0.664-2.431-2.084-4.268-4.261-5.509c-2.225-1.27-4.553-1.572-6.983-0.908
		c-2.393,0.654-4.224,2.093-5.493,4.318c-1.28,2.187-1.588,4.496-0.924,6.926S241.336,128.688,243.551,129.919 M131.626,147.162
		c-1.28,2.187-1.588,4.495-0.924,6.926c0.665,2.431,2.104,4.262,4.318,5.494c2.214,1.232,4.518,1.521,6.91,0.867
		c2.431-0.665,4.286-2.09,5.566-4.276c1.242-2.176,1.53-4.48,0.866-6.911s-2.084-4.267-4.261-5.509
		c-2.225-1.27-4.553-1.572-6.983-0.908C134.727,143.498,132.896,144.937,131.626,147.162z"/>
</g>
</svg>
