<?xml version="1.0" encoding="utf-8"?>
<!-- Generator: Adobe Illustrator 16.0.0, SVG Export Plug-In . SVG Version: 6.00 Build 0)  -->
<!DOCTYPE svg PUBLIC "-//W3C//DTD SVG 1.0//EN" "http://www.w3.org/TR/2001/REC-SVG-20010904/DTD/svg10.dtd">
<svg version="1.0" id="레이어_1" xmlns="http://www.w3.org/2000/svg" xmlns:xlink="http://www.w3.org/1999/xlink" x="0px"
	 y="0px" width="483.361px" height="477.553px" viewBox="0 0 483.361 477.553" enable-background="new 0 0 483.361 477.553"
	 xml:space="preserve">
<path fill="#F9D3C7" d="M218.701,107.29c-10.331-2.169-19.615-1.287-27.853,2.646c-8.676,4.2-15.288,10.044-19.843,17.533
	c-4.945,8.389-6.6,17.554-4.96,27.496c-39.861,29.927-62.031,69.91-66.51,119.949c-1.198,20.86,1.813,38.016,9.031,51.464
	c12.337,36.812,35.885,66.558,70.644,89.236l52.504,12.35c7.032,1.704,13.146,2.765,18.339,3.182
	c10.12,0.813,18.73,0.938,25.832,0.378c7.096-0.518,10.705-0.771,10.83-0.764c0.21-0.019,0.423-0.046,0.638-0.086
	c2.953-0.238,5.897-0.599,8.834-1.078c-2.937,0.479-5.881,0.84-8.834,1.078c2.556,19.491,8.616,31.984,18.18,37.478
	c15.066,7.146,27.669,3.992,37.807-9.457c0.954-1.552,1.864-3.302,2.729-5.251c3.797-8.174,5.329-17.074,4.595-26.698
	c37.563-17.983,64.108-42.785,79.64-74.404c8.896,3.436,16.482,5.43,22.764,5.983c1.306,0.117,2.587,0.136,3.843,0.056
	c10.825-0.986,17.575-6.99,20.251-18.013c1.487-7.512-0.161-14.343-4.942-20.493c-4.813-6.617-12.695-14.223-23.65-22.814
	c1.882-50.204-15.058-92.668-50.817-127.393c2.925-9.652,2.442-18.953-1.445-27.902c-3.57-8.004-9.394-14.638-17.468-19.9
	c-7.674-4.942-16.771-6.991-27.294-6.146c-10.858,0.867-20.241,4.623-28.146,11.269c-26.375-7.055-52.44-8.708-78.197-4.961
	C238.196,114.434,229.364,109.522,218.701,107.29z"/>
<path fill="#040000" d="M321.674,477.523c-5.851,0.253-12.065-1.146-18.563-4.22c-0.139-0.065-0.274-0.137-0.407-0.213
	c-10.328-5.955-16.949-17.873-20.163-36.355c-1.508,0.111-3.525,0.264-6.229,0.469c-7.36,0.557-16.332,0.42-26.681-0.408
	c-5.482-0.44-11.954-1.549-19.235-3.29l-52.483-12.375c-0.64-0.151-1.246-0.412-1.796-0.771
	c-35.691-23.288-60.225-54.303-72.918-92.182c-0.994-2.966,0.604-6.176,3.569-7.17c2.968-0.996,6.178,0.604,7.171,3.569
	c11.766,35.109,34.49,63.957,67.545,85.754l51.53,12.15c6.731,1.611,12.623,2.625,17.524,3.021
	c9.761,0.782,18.143,0.922,24.915,0.403c7.285-0.553,9.786-0.738,10.803-0.791l0.576-0.051c0.02-0.001,0.037-0.003,0.057-0.004
	c2.795-0.246,5.612-0.603,8.382-1.055c3.087-0.5,6.001,1.587,6.506,4.674c0.506,3.087-1.587,6-4.674,6.506
	c-1.076,0.176-2.158,0.338-3.244,0.486c2.595,14.154,7.397,23.39,14.313,27.491c12.392,5.777,22.086,3.343,30.481-7.662
	c0.786-1.301,1.559-2.774,2.3-4.389c3.355-7.285,4.733-15.34,4.094-23.947c-0.172-2.325,1.1-4.52,3.202-5.526
	c36.191-17.338,62.087-41.494,76.971-71.796c1.295-2.635,4.385-3.847,7.125-2.787c8.358,3.229,15.5,5.122,21.222,5.627
	c0.99,0.088,1.974,0.104,2.91,0.049c8.351-0.784,13.028-4.978,15.151-13.581c1.125-5.832-0.138-11.004-3.855-15.807
	c-0.033-0.042-0.065-0.085-0.096-0.127c-4.506-6.17-12.11-13.473-22.604-21.701c-1.428-1.12-2.231-2.856-2.164-4.67
	c1.811-48.297-14.711-89.72-49.104-123.116c-1.521-1.477-2.091-3.678-1.476-5.706c2.545-8.402,2.146-16.254-1.221-24.002
	c-3.123-7.002-8.155-12.715-15.364-17.413c-6.637-4.273-14.409-5.989-23.747-5.245c-9.749,0.777-17.911,4.034-24.956,9.958
	c-1.416,1.191-3.322,1.614-5.107,1.137c-25.506-6.822-51.046-8.448-75.918-4.827c-1.838,0.268-3.713-0.392-4.979-1.765
	c-6.241-6.767-13.926-11.028-23.495-13.031c-9.167-1.925-17.101-1.201-24.251,2.214c-7.715,3.736-13.431,8.767-17.441,15.366
	c-4.252,7.209-5.643,14.96-4.213,23.631c0.345,2.083-0.5,4.184-2.188,5.451c-38.337,28.78-59.96,67.783-64.27,115.925
	c-0.278,3.114-3.036,5.419-6.146,5.137c-3.116-0.279-5.416-3.031-5.138-6.146c4.507-50.357,26.745-91.372,66.11-121.958
	c-0.971-9.955,1.083-19.313,6.122-27.859c5.147-8.467,12.622-15.091,22.253-19.755c9.374-4.478,19.955-5.513,31.484-3.092
	c10.749,2.25,19.95,7.048,27.392,14.276c24.581-3.193,49.729-1.595,74.829,4.769c8.301-6.242,18.044-9.847,29.006-10.721
	c11.72-0.949,22.104,1.421,30.813,7.03c8.991,5.861,15.566,13.376,19.572,22.355c3.985,9.172,4.849,18.728,2.592,28.488
	c34.51,34.642,51.401,77.151,50.246,126.442c10.254,8.227,17.618,15.467,22.462,22.083c5.75,7.457,7.748,15.867,5.941,24.996
	c-0.017,0.08-0.033,0.158-0.053,0.235c-3.252,13.394-11.979,21.108-25.241,22.316c-0.052,0.006-0.104,0.01-0.155,0.012
	c-1.537,0.1-3.121,0.076-4.704-0.063c-5.59-0.494-12.137-2.033-19.507-4.586c-15.814,29.563-41.531,53.363-76.537,70.823
	c0.146,9.105-1.624,17.717-5.275,25.644c-0.972,2.114-2.008,4.072-3.079,5.813c-0.094,0.152-0.195,0.301-0.303,0.442
	C340.462,471.921,331.594,477.097,321.674,477.523z"/>
<path fill="#040000" d="M108.595,327.009c-0.233,0.01-0.465-0.112-0.582-0.332c-7.241-13.489-10.305-30.917-9.105-51.797
	c0.021-0.348,0.327-0.605,0.665-0.593c0.347,0.02,0.611,0.316,0.592,0.664c-1.186,20.646,1.828,37.849,8.957,51.129
	c0.165,0.308,0.05,0.688-0.257,0.854C108.779,326.979,108.687,327.005,108.595,327.009z"/>
<g id="Layer3_10_MEMBER_1_FILL_00000016784525771259636980000017271642023917599413_">
	<path fill="#040000" d="M237.621,230.515c-2.048,1.804-3.16,4.088-3.335,6.853c-0.173,2.722,0.644,5.106,2.446,7.154
		c1.763,2.046,4.024,3.156,6.789,3.331c2.763,0.176,5.169-0.639,7.218-2.441c2.048-1.805,3.159-4.067,3.331-6.789
		c0.176-2.765-0.639-5.17-2.442-7.219c-1.805-2.048-4.088-3.159-6.852-3.335C242.012,227.894,239.627,228.708,237.621,230.515z"/>
</g>
<path fill="#FFFFFF" d="M297.763,260.628c-5.536-7.498-12.575-11.52-21.117-12.062c-8.584-0.545-16.139,2.549-22.661,9.283
	c-6.489,6.861-10.054,15.337-10.694,25.428c-0.646,10.177,1.819,19.035,7.396,26.577c5.619,7.504,12.722,11.528,21.306,12.072
	c8.542,0.542,16.032-2.557,22.472-9.294c6.526-6.775,10.111-15.25,10.758-25.426C305.861,277.116,303.375,268.257,297.763,260.628z"
	/>
<g id="Layer3_10_MEMBER_3_FILL_00000162330013085650407020000016593183564455248299_">
	<path fill="#DB6B74" d="M275.518,266.342c-0.473,3.46-1.819,6.149-4.043,8.067c-1.96,1.727-4.392,2.602-7.293,2.628
		c-0.475,0.01-0.937,0.001-1.387-0.024c-1.88,23.003,1.283,34.765,9.49,35.285c8.155,0.518,13.243-10.764,15.266-33.842
		c-0.712,0.02-1.443-0.027-2.198-0.14c-2.874-0.435-5.195-1.611-6.966-3.531C276.466,272.604,275.509,269.789,275.518,266.342z"/>
</g>
<path fill="#040000" d="M273.539,317.341c-0.51,0.021-1.032,0.017-1.569-0.019c-3.495-0.222-6.577-1.768-8.914-4.47
	c-4.727-5.466-6.522-15.655-5.583-31.889c-3.146-1.198-5.78-3.343-7.761-6.353c-1.527-2.322-0.885-5.444,1.438-6.974
	s5.445-0.885,6.974,1.438c1.219,1.851,2.76,2.749,4.993,2.909c0.313,0.019,0.635,0.022,0.964,0.017
	c1.753-0.02,3.022-0.452,4.067-1.372c1.28-1.104,2.041-2.667,2.357-4.803l0.653-10.295c0.176-2.774,2.564-4.883,5.344-4.705
	c2.774,0.177,4.882,2.567,4.705,5.344l-0.653,10.323c0.018,2.102,0.532,3.713,1.574,4.92c0.987,1.051,2.253,1.663,3.978,1.924
	c0.469,0.068,0.936,0.107,1.378,0.113c0.178-0.004,0.349-0.016,0.521-0.028c1.785-0.113,3.111-0.814,4.354-2.277
	c1.797-2.122,4.975-2.383,7.096-0.585c2.121,1.797,2.383,4.976,0.584,7.096c-2.174,2.565-4.846,4.328-7.852,5.205
	C290.51,298.524,286.485,316.78,273.539,317.341z M267.515,281.753c-0.979,17.592,1.826,22.978,3.155,24.515
	c0.574,0.664,1.136,0.955,1.936,1.005c3.095,0.205,7.321-6.225,9.451-24.536c-2.882-0.847-5.336-2.349-7.324-4.486
	C272.679,280.048,270.255,281.225,267.515,281.753z"/>
<g id="Layer3_10_MEMBER_3_MEMBER_0_FILL_00000094600738657829656420000004515607735161493646_">
	<path fill="#040000" d="M282.505,256.007c1.933-1.057,2.951-2.42,3.058-4.087c0.105-1.667-0.732-3.147-2.517-4.44
		c-1.781-1.293-3.979-2.021-6.596-2.188s-4.889,0.278-6.82,1.336s-2.949,2.42-3.056,4.087c-0.104,1.668,0.732,3.146,2.515,4.439
		c1.783,1.293,3.981,2.021,6.598,2.188S280.575,257.063,282.505,256.007z"/>
</g>
<path fill="#040000" d="M306.121,198.344c-1.693,0.073-3.384-0.71-4.397-2.219c-1.554-2.308-0.942-5.437,1.363-6.989l9.568-6.44
	c2.308-1.553,5.436-0.94,6.988,1.365c1.553,2.308,0.94,5.437-1.365,6.989l-9.567,6.439
	C307.913,198.027,307.016,198.305,306.121,198.344z"/>
<path fill="#040000" d="M254.244,195.052c-1.253,0.054-2.525-0.357-3.542-1.25l-8.634-7.596c-2.087-1.836-2.291-5.019-0.453-7.105
	c1.837-2.086,5.018-2.291,7.105-0.454l8.634,7.597c2.087,1.837,2.291,5.018,0.453,7.105
	C256.865,194.42,255.566,194.995,254.244,195.052z"/>
<path fill="#E799A0" d="M203.78,223.137c-7.776-8.829-17.54-13.617-29.293-14.362c-11.752-0.746-22.043,2.771-30.873,10.545
	c-8.829,7.776-13.616,17.54-14.362,29.293c-0.745,11.752,2.771,22.043,10.546,30.873c7.775,8.828,17.54,13.616,29.292,14.361
	c11.754,0.746,22.044-2.77,30.873-10.545s13.616-17.539,14.362-29.292S211.555,231.966,203.78,223.137 M407.868,296.493
	c8.829-7.776,13.617-17.541,14.362-29.293c0.746-11.753-2.771-22.043-10.545-30.873c-7.776-8.829-17.54-13.617-29.293-14.362
	c-11.752-0.746-22.043,2.77-30.872,10.545s-13.617,17.54-14.363,29.292c-0.745,11.753,2.771,22.044,10.546,30.872
	c7.775,8.83,17.54,13.617,29.292,14.362C388.748,307.783,399.039,304.269,407.868,296.493z"/>
<g id="Layer3_11_FILL_00000007411579741761165450000005947936596712608131_">
	<path fill="#F9D3C7" d="M50.72,277.998c-0.563,3.596-0.146,7.32,1.244,11.178c5.007,14.562,23.784,26.705,56.338,36.43
		l-6.621-60.644c-17.783-3.314-30.524-3.599-38.226-0.851C56.055,266.8,51.81,271.429,50.72,277.998z"/>
</g>
<path fill="#040000" d="M108.545,331.267c-0.613,0.026-1.242-0.048-1.864-0.234c-34.696-10.364-54.331-23.438-60.022-39.964
	c-1.728-4.742-2.23-9.435-1.499-13.944c0.975-6.007,4.607-14.064,16.364-18.335c8.771-3.129,22.234-2.93,41.196,0.604
	c3.074,0.573,5.104,3.531,4.529,6.606c-0.571,3.075-3.529,5.104-6.605,4.53c-20.807-3.879-30.67-2.729-35.282-1.083
	c-7.121,2.587-8.561,6.657-9.021,9.492c-0.426,2.622-0.105,5.334,0.978,8.29c0.015,0.038,0.027,0.076,0.04,0.114
	c4.335,12.662,22.021,23.71,52.566,32.835c2.997,0.895,4.701,4.051,3.807,7.049C113.02,329.603,110.89,331.164,108.545,331.267z"/>
<g id="Layer3_12_FILL_00000042734755005824516950000012580760450243509922_">
	<path fill="#FFFFFF" d="M94.533,206.344l-4.322-34.107l-28.485,0.805l9.227,101.166c2.197,19.446,8.851,29.227,19.958,29.341
		c5.661-0.328,9.312-2.91,10.948-7.747c1.619-4.754,1.771-13.339,0.457-25.755C100.909,256.879,98.315,235.645,94.533,206.344
		 M76.7,218.938l3.127,34.55L76.7,218.938 M86.711,230.714l4.353,40.046L86.711,230.714z"/>
	<path fill="#CFE192" d="M89.437,166.454c-0.759-7.778-1.001-14.883-0.729-21.313l-29.245,1.022
		c0.697,5.355,1.154,11.305,1.372,17.845l0.889,9.032l28.485-0.805L89.437,166.454z"/>
	<path fill="#68AA46" d="M8.279,60.53c0.8,1.039,4.413,5.177,10.838,12.412c16.15,18.176,28.121,36.298,35.912,54.372
		c1.925,5.244,3.404,11.527,4.436,18.852l29.245-1.022c0.282-6.471,1.11-12.305,2.484-17.5c3.15-13.741,8.876-26.307,17.176-37.695
		c4.396-6.025,6.527-10.473,6.394-13.34c-0.084-2.125-2.092-5.754-6.02-10.886c-2.687-3.565-5.476-5.133-8.365-4.703
		c-2.79,0.366-5.916,2.721-9.378,7.064c-3.647,4.603-7.139,9.648-10.47,15.14c-0.06,0.073-0.098,0.15-0.116,0.232
		c-3.996,6.545-7.315,12.854-9.96,18.928c1.526,3.178,2.948,6.246,4.267,9.205c-1.317-2.959-2.739-6.027-4.267-9.205
		C65.356,92.09,58.732,80.639,50.583,68.031c-4.928-7.59-10.39-15.578-16.386-23.966c-7.154-11.096-13.88-14.187-20.178-9.271
		c-1.776,2.183-3.521,4.997-5.235,8.439c-1.859,3.712-2.895,6.619-3.104,8.722C5.353,54.762,6.219,57.621,8.279,60.53z"/>
	<path fill="#316F36" d="M79.199,13.736c-0.99-2.111-3.302-3.702-6.933-4.77c-1.292-0.374-5.552-1.324-12.776-2.85
		c-3.458-0.686-5.947-0.511-7.468,0.526c-2.101,1.509-3.519,4.977-4.254,10.4c-2.251,15.102-1.313,32.098,2.813,50.986
		c8.149,12.607,14.773,24.059,19.872,34.352c2.645-6.073,5.964-12.383,9.96-18.928c-0.958-8.425-1.496-18.346-1.615-29.765
		c-0.088-10.594,0.255-19.738,1.024-27.434C80.37,20.145,80.162,15.972,79.199,13.736z"/>
</g>
<path fill="#040000" d="M91.206,309.155c-0.101,0.004-0.201,0.006-0.302,0.005c-9.886-0.101-22.34-6.146-25.528-34.367
	c-0.005-0.041-0.009-0.082-0.013-0.122l-9.227-101.164l-0.885-8.993c-0.011-0.121-0.02-0.243-0.022-0.364
	c-0.211-6.333-0.658-12.153-1.328-17.303c-0.954-6.768-2.331-12.669-4.084-17.484c-7.517-17.386-19.251-35.115-34.881-52.705
	C6.27,66.896,4.457,64.732,3.845,63.938c-0.047-0.06-0.092-0.121-0.136-0.183c-2.882-4.07-4.095-8.276-3.604-12.5
	c0.272-2.734,1.476-6.231,3.666-10.606c1.889-3.791,3.878-6.983,5.908-9.479c0.269-0.33,0.572-0.628,0.907-0.891
	c4.571-3.566,8.904-3.742,11.734-3.265c5.792,0.98,11.229,5.501,16.613,13.816c0.823,1.151,1.639,2.299,2.443,3.439
	c-0.741-9.972-0.464-19.37,0.84-28.109c0.967-7.126,3.052-11.649,6.55-14.164c0.039-0.027,0.076-0.056,0.115-0.081
	c2.855-1.946,6.702-2.404,11.761-1.403c9.969,2.104,12.334,2.7,13.25,2.966c5.26,1.546,8.779,4.17,10.483,7.807
	c0.025,0.053,0.051,0.106,0.072,0.161c1.394,3.229,1.722,7.938,1.066,15.268c-0.751,7.513-1.087,16.538-1.002,26.883
	c0.048,4.625,0.167,9.021,0.356,13.164c0.577-0.76,1.157-1.509,1.74-2.245c4.462-5.599,8.737-8.591,13.08-9.162
	c3.396-0.509,8.618,0.268,13.625,6.91c4.869,6.362,7.018,10.58,7.155,14.07c0.202,4.311-2.103,9.536-7.476,16.902
	c-7.808,10.712-13.269,22.698-16.23,35.622c-0.015,0.062-0.029,0.121-0.046,0.183c-1.266,4.784-2.039,10.268-2.303,16.3
	c-0.259,6.11-0.023,12.979,0.697,20.414l0.76,5.683l4.328,34.146c3.769,29.191,6.39,50.665,7.793,63.811
	c1.437,13.559,1.204,22.513-0.728,28.185c-2.37,6.999-8.047,11.114-15.983,11.572C91.26,309.152,91.233,309.153,91.206,309.155z
	 M76.639,273.58c2.68,23.589,11.107,24.205,14.176,24.249c3.743-0.261,5.002-1.746,5.729-3.896c0.931-2.726,1.712-8.977,0.19-23.343
	c-1.395-13.061-4.007-34.45-7.766-63.572L84.644,172.9l-0.77-5.744c-0.009-0.066-0.016-0.134-0.022-0.2
	c-0.78-7.995-1.032-15.433-0.749-22.103c0.297-6.812,1.187-13.072,2.644-18.617c3.313-14.392,9.4-27.738,18.101-39.674
	c4.877-6.688,5.275-9.252,5.309-9.681c-0.106-0.396-0.812-2.481-4.856-7.768c-1.4-1.858-2.536-2.604-3.032-2.543
	c-0.176,0.023-2.06,0.319-5.782,4.992c-3.438,4.337-6.784,9.169-9.938,14.354c-0.088,0.177-0.185,0.35-0.289,0.515
	c-3.313,5.433-6.169,10.746-8.509,15.828c1.123,2.38,2.197,4.717,3.201,6.974c1.272,2.857-0.013,6.206-2.87,7.479
	c-2.856,1.271-6.207-0.014-7.479-2.871c-1.289-2.896-2.696-5.932-4.183-9.024c-4.974-10.041-11.546-21.396-19.534-33.752
	c-4.858-7.485-10.322-15.479-16.239-23.755c-0.053-0.074-0.104-0.147-0.152-0.225c-4.813-7.465-7.938-8.712-9.059-8.901
	c-0.346-0.058-1.099-0.187-2.395,0.677c-1.366,1.781-2.753,4.081-4.131,6.849c-2.103,4.194-2.476,6.125-2.539,6.761
	c-0.167,1.444,0.332,2.935,1.518,4.638c0.522,0.658,2.619,3.125,10.52,12.024c16.477,18.542,28.885,37.346,36.879,55.889
	c0.041,0.097,0.078,0.192,0.114,0.29c2.054,5.592,3.645,12.325,4.729,20.013c0.719,5.517,1.192,11.641,1.419,18.263l0.869,8.851
	L76.639,273.58z M55.955,65.78c5.448,8.466,10.254,16.488,14.362,23.974c1.339-2.517,2.778-5.065,4.313-7.638
	c-0.845-8.161-1.33-17.707-1.44-28.413c-0.088-10.765,0.266-20.199,1.053-28.058c0.605-6.769,0.029-9.079-0.15-9.604
	c-0.194-0.277-1.087-1.017-3.366-1.688c-0.628-0.182-3.097-0.789-12.351-2.742c-1.78-0.353-2.731-0.305-3.122-0.25
	c-0.334,0.473-1.231,2.085-1.816,6.398C51.324,31.917,52.175,48.045,55.955,65.78z"/>
<path fill="#040000" d="M91.222,273.226c-1.314,0.058-2.465-0.916-2.608-2.244l-4.352-40.045c-0.15-1.382,0.849-2.625,2.229-2.773
	c1.38-0.146,2.624,0.85,2.774,2.23l4.352,40.045c0.15,1.383-0.849,2.625-2.229,2.774C91.333,273.22,91.277,273.224,91.222,273.226z
	 M79.987,255.954c-1.335,0.057-2.492-0.944-2.613-2.289l-3.128-34.549c-0.125-1.386,0.896-2.608,2.28-2.734
	c1.372-0.117,2.609,0.896,2.734,2.281l3.128,34.55c0.125,1.385-0.896,2.607-2.281,2.733
	C80.067,255.949,80.027,255.952,79.987,255.954z"/>
<g id="Layer3_13_FILL_00000176733058899438271200000009316923067089897088_">
	<path fill="#F9D3C7" d="M229.401,400.108c-0.398-0.63-0.816-1.238-1.254-1.826c-6.681-8.447-16.705-11.471-30.077-9.065
		c-17.116,4.438-25.154,17.035-24.113,37.787c3.995,17.575,13.484,26.683,28.468,27.319c15.871-0.041,25.979-6.873,30.32-20.496
		C236.187,421.688,235.073,410.448,229.401,400.108z"/>
</g>
<path fill="#040000" d="M204.74,459.895c-0.761,0.032-1.531,0.05-2.313,0.052c-0.086,0.001-0.172-0.001-0.257-0.004
	c-12.225-0.521-28.004-6.446-33.749-31.725c-0.072-0.318-0.117-0.646-0.135-0.972c-1.48-29.534,14.6-39.986,28.35-43.554
	c0.139-0.036,0.277-0.066,0.42-0.093c15.522-2.789,27.477,0.953,35.521,11.129c0.032,0.042,0.065,0.084,0.097,0.127
	c0.525,0.703,1.029,1.438,1.502,2.187c0.063,0.099,0.121,0.198,0.179,0.303c6.388,11.642,7.675,24.423,3.827,37.985
	c-0.018,0.06-0.034,0.117-0.053,0.176C233.264,450.765,221.744,459.16,204.74,459.895z M202.525,448.617
	c13.299-0.068,21.19-5.303,24.781-16.467c3.001-10.649,2.085-20.206-2.801-29.201c-0.274-0.43-0.565-0.852-0.866-1.258
	c-5.291-6.645-13.266-8.929-24.367-6.979c-14.191,3.763-20.459,13.775-19.695,31.474
	C184.129,445.492,194.805,448.266,202.525,448.617z"/>
<path fill="#040000" d="M318.728,257.641c-1.141,0.05-2.305-0.286-3.278-1.036l-12.989-9.968c-1.322-1.016-2.059-2.62-1.961-4.286
	s1.013-3.175,2.444-4.03l15.271-9.12c2.389-1.427,5.479-0.646,6.904,1.74c1.426,2.388,0.646,5.479-1.741,6.904l-8.904,5.319
	l7.104,5.453c2.207,1.692,2.622,4.854,0.93,7.061C321.565,256.905,320.166,257.579,318.728,257.641z"/>
</svg>
