<?xml version="1.0" encoding="utf-8"?>
<!-- Generator: Adobe Illustrator 16.0.0, SVG Export Plug-In . SVG Version: 6.00 Build 0)  -->
<!DOCTYPE svg PUBLIC "-//W3C//DTD SVG 1.1//EN" "http://www.w3.org/Graphics/SVG/1.1/DTD/svg11.dtd">
<svg version="1.1" id="레이어_1" xmlns="http://www.w3.org/2000/svg" xmlns:xlink="http://www.w3.org/1999/xlink" x="0px"
	 y="0px" width="841.89px" height="841.891px" viewBox="0 0 841.89 841.891" enable-background="new 0 0 841.89 841.891"
	 xml:space="preserve">
<path fill="#BF0D23" stroke="#BF0D23" stroke-width="0.3" stroke-miterlimit="10" d="M581.693,1.673
	c23.527,0,35.184,11.979,35.184,35.938v394.127c0,11.547-7.016,17.268-21.152,17.268h-9.822v202.891
	c0,25.9-4.424,50.398-13.381,73.387c-8.959,22.986-21.152,43.168-36.693,60.436s-34.535,30.758-57.09,40.256
	c-22.557,9.604-46.945,14.354-73.279,14.354c-27.304,0-51.91-4.748-74.034-14.354c-22.016-9.498-41.01-22.986-56.982-40.256
	c-15.972-17.268-28.167-37.447-36.693-60.436c-8.526-22.986-12.735-47.484-12.735-73.387c0-7.662,3.777-11.547,11.224-11.547
	h298.726V449.111h-11.227c-12.195,0-18.346-5.719-18.346-17.268V37.61c0-11.548,3.021-20.396,9.172-26.656
	c6.045-6.26,12.951-9.39,20.398-9.39h46.73V1.673z M405.566,817.337c22.556,0,43.492-4.102,62.703-12.193
	c19.209-8.096,35.938-19.211,50.074-33.133c14.139-13.922,25.145-30.219,33.133-48.889c7.986-18.67,11.979-39.066,11.979-61.189
	H247.677c0,5.719,0.216,11.979,0.755,18.67c0.432,6.689,1.619,11.979,3.562,15.863h91.625c8.418,0,12.735,3.346,12.735,10.037
	c0,7.662-4.209,11.547-12.735,11.547h-86.121c0.971,4.855,2.806,8.201,5.612,10.037h42.305c8.417,0,12.734,3.885,12.734,11.547
	s-4.209,11.547-12.734,11.547h-30.974c14.138,19.211,32.592,35.074,55.688,47.486C353.116,811.077,378.261,817.337,405.566,817.337z
	 M528.164,426.017h16.945V36.206c0-5.72-0.758-9.389-2.16-10.792c-1.404-1.401-3.563-2.157-6.367-2.157
	c-5.611,0-8.418,4.316-8.418,12.949V426.017z M556.332,460.55v179.799h7.016V460.55H556.332z M594.32,426.017V37.61
	c0-9.604-4.209-14.354-12.734-14.354H563.24c1.834,1.941,2.805,6.69,2.805,14.354v388.407H594.32L594.32,426.017z"/>
</svg>
