<?xml version="1.0" encoding="utf-8"?>
<!-- Generator: Adobe Illustrator 16.0.0, SVG Export Plug-In . SVG Version: 6.00 Build 0)  -->
<!DOCTYPE svg PUBLIC "-//W3C//DTD SVG 1.1//EN" "http://www.w3.org/Graphics/SVG/1.1/DTD/svg11.dtd">
<svg version="1.1" id="레이어_1" xmlns="http://www.w3.org/2000/svg" xmlns:xlink="http://www.w3.org/1999/xlink" x="0px"
	 y="0px" width="841.89px" height="841.891px" viewBox="0 0 841.89 841.891" enable-background="new 0 0 841.89 841.891"
	 xml:space="preserve">
<path fill="#BF0D23" stroke="#BF0D23" stroke-width="0.3" stroke-miterlimit="10" d="M716.234,499.254
	c1.297,1.796,1.297,3.791,0,5.986l-7.832,10.626l7.832,9.977c1.746,2.245,1.746,4.24,0,5.986l-7.832,9.979l7.832,10.625
	c1.297,2.244,1.297,4.438,0,6.635l-9.777,13.319c-1.297,1.347-3.043,1.994-5.189,1.994h-7.184l-23.445-8.63H389.886l-25.393,8.63
	h-6.535c-1.746,0-3.491-0.896-5.188-2.644l-9.777-12.621c-2.194-2.194-2.194-4.438,0-6.635l2.594-1.995
	c-3.491-0.898-6.186-2.444-8.131-4.64c-1.945-2.194-4.041-4.641-6.186-7.333c-3.492-5.736-7.383-8.631-11.723-8.631
	c-2.595,0-4.789,0.799-6.535,2.346c-1.746,1.546-3.691,3.642-5.887,6.335c-2.194,3.093-4.789,5.887-7.832,8.331
	c-3.043,2.443-6.934,3.642-11.723,3.642c-4.34,0-7.932-1.347-10.726-3.991c-2.844-2.644-5.337-5.338-7.482-7.98
	c-3.891-5.736-8.032-8.63-12.372-8.63c-3.043,0-6.733,2.894-11.075,8.63c-2.194,3.093-4.789,5.887-7.832,8.331
	c-3.043,2.443-6.733,3.642-11.073,3.642c-4.789,0-8.78-1.197-12.072-3.642c-3.243-2.444-5.986-5.188-8.131-8.331
	c-2.195-2.645-4.041-4.739-5.537-6.335c-1.546-1.547-3.394-2.346-5.538-2.346c-2.594,0-4.689,0.799-6.187,2.346
	c-1.546,1.546-3.392,3.642-5.536,6.335c-2.595,3.093-5.188,5.887-7.832,8.331c-2.595,2.443-6.535,3.642-11.724,3.642
	c-4.789,0-8.58-1.197-11.424-3.642c-2.843-2.444-5.537-4.739-8.131-6.984c-2.195-2.194-4.14-3.99-5.886-5.337
	c-1.746-1.348-4.142-2.195-7.185-2.645c-1.746-0.449-3.492-1.348-5.188-2.645c-1.746-1.347-2.594-3.991-2.594-7.98v-13.32
	c0-3.094,0.199-5.338,0.647-6.635c0-0.449-0.1-1.197-0.349-2.346c-0.199-1.098-0.299-2.096-0.299-2.993v-13.318
	c0-2.646,0.199-4.44,0.647-5.338c0-1.348-0.1-2.444-0.349-3.344c-0.199-0.896-0.299-1.994-0.299-3.342v-13.318
	c0-3.094,0.199-4.89,0.647-5.339c0-0.896-0.1-1.896-0.349-2.992c-0.199-1.099-0.299-2.096-0.299-2.993v-13.319
	c0-2.644,0.199-4.639,0.647-5.986c0-0.448-0.1-1.196-0.349-2.345c-0.199-1.097-0.299-2.345-0.299-3.642v-13.968
	c0-2.195,0.199-3.991,0.647-5.338c0-0.897-0.1-1.746-0.349-2.645c-0.199-0.897-0.299-1.746-0.299-2.645v-13.319
	c0-3.093,0.199-5.337,0.647-6.635c0-0.448-0.1-1.196-0.349-2.344c-0.199-1.099-0.299-2.097-0.299-2.993V357.53
	c0-2.195,0.199-4.19,0.647-5.986c0-0.897-0.1-1.646-0.349-2.345c-0.199-0.647-0.299-1.896-0.299-3.642v-13.319
	c0-2.645,0.199-4.439,0.647-5.338c0-0.897-0.1-1.746-0.349-2.645c-0.199-0.897-0.299-1.996-0.299-3.343v-13.17
	c0-7.083,2.395-10.625,7.184-10.625c3.492,0,7.184,1.247,11.075,3.642c3.94,2.444,6.983,4.739,9.129,6.983
	c2.594,2.646,4.889,4.789,6.834,6.336c1.946,1.546,3.991,2.345,6.186,2.345c2.595,0,4.789-0.749,6.535-2.345
	c1.746-1.547,3.692-3.642,5.887-6.336c2.146-3.093,4.64-5.886,7.483-8.33c2.793-2.443,6.635-3.642,11.423-3.642
	c4.789,0,8.581,1.247,11.424,3.642c2.845,2.444,5.288,4.788,7.483,6.983c2.145,3.542,4.141,6.086,5.836,7.633
	c1.746,1.546,3.891,2.345,6.535,2.345c1.746,0,3.342-0.897,4.889-2.645c1.497-1.746,3.342-3.741,5.537-5.986
	c2.146-3.541,4.789-6.435,7.832-8.63s6.934-3.342,11.723-3.342c5.188,0,9.129,1.247,11.724,3.642
	c2.594,2.444,4.987,4.789,7.183,6.983c4.34,6.635,8.231,9.978,11.724,9.978c2.594,0,4.788-0.749,6.534-2.345
	c1.746-1.547,3.691-3.642,5.836-6.336c2.595-3.093,5.339-5.886,8.132-8.33c2.793-2.445,6.635-3.643,11.424-3.643
	c4.34,0,7.932,1.446,10.725,4.341c2.844,2.893,5.538,5.438,8.131,7.632c0.849,0.897,1.497,1.646,1.946,2.345
	c0.449,0.648,1.097,1.247,1.945,1.646l8.479-11.324l-7.832-9.978c-2.194-2.194-2.194-4.439,0-6.635l10.426-13.318
	c2.595-3.094,6.285-3.742,11.074-1.996l25.393,8.631h280.753l23.445-8.631h7.832c1.746,0,3.244,0.647,4.541,1.996l9.775,13.318
	c1.297,2.244,1.297,4.439,0,6.635l-7.832,9.978l7.832,10.626c1.297,2.244,1.297,4.24,0,5.986l-7.832,9.977l7.832,9.979
	c1.746,2.243,1.746,4.438,0,6.635l-7.832,10.625l7.832,10.626c1.297,2.244,1.297,4.189,0,5.985l-7.832,9.978l7.832,10.626
	c1.746,2.644,1.746,4.889,0,6.635l-7.83,9.979l7.832,10.626c1.297,1.796,1.297,3.542,0,5.338l-7.832,10.625l7.832,9.978
	c2.145,2.244,2.145,4.439,0,6.635l-7.832,9.978l7.832,10.626c1.746,1.796,1.746,3.791,0,5.985l-7.832,10.625L716.234,499.254z
	 M184.01,313.732c-2.195,2.645-4.689,5.438-7.483,8.331c-2.844,2.894-6.834,4.34-12.072,4.34c-4.789,0-8.58-1.347-11.424-3.99
	c-2.843-2.645-5.537-5.338-8.131-7.981c-2.993-2.693-6.685-4.938-11.024-6.686v13.319c3.492,1.348,6.734,3.243,9.777,5.638
	c3.043,2.444,5.637,4.789,7.832,6.983c5.188,4.439,9.528,6.635,13.02,6.635c2.595,0,4.789-0.748,6.535-2.345
	c1.746-1.546,3.691-3.441,5.887-5.637c2.145-2.645,4.639-5.438,7.482-8.331c2.793-2.895,6.635-4.341,11.424-4.341
	s8.58,1.446,11.424,4.341c2.844,2.894,5.287,5.638,7.482,8.331c3.892,5.338,8.032,7.98,12.372,7.98c2.594,0,6.086-2.644,10.426-7.98
	c2.146-3.094,4.789-5.986,7.832-8.631s6.935-3.99,11.724-3.99c5.188,0,9.028,1.347,11.424,3.99c2.395,2.645,4.889,5.537,7.482,8.631
	c4.341,5.338,8.231,7.98,11.724,7.98c2.594,0,4.789-0.748,6.535-2.345c1.745-1.546,3.69-3.441,5.836-5.637
	c2.145-2.645,4.789-5.438,7.832-8.331c3.043-2.894,6.934-4.341,11.723-4.341c4.34,0,8.031,1.548,11.075,4.641
	c3.043,3.093,5.637,5.786,7.832,7.98l4.54,4.641l7.832-9.979l-1.297-0.647c-3.492,0-6.835-1.348-10.077-3.991
	c-3.243-2.645-5.986-5.537-8.131-8.63c-5.188-6.187-9.13-9.328-11.724-9.328c-4.34,0-8.479,3.093-12.372,9.328
	c-2.194,2.645-4.688,5.438-7.482,8.331c-2.844,2.894-6.834,4.34-12.072,4.34c-4.34,0-8.032-1.446-11.075-4.34
	c-3.043-2.895-5.438-5.638-7.184-8.331c-2.195-3.093-4.141-5.438-5.836-6.983c-1.746-1.547-3.892-2.345-6.535-2.345
	c-3.492,0-7.184,3.093-11.074,9.328c-2.195,2.645-4.789,5.438-7.832,8.331c-3.043,2.893-6.734,4.34-11.075,4.34
	c-4.789,0-8.779-1.446-12.071-4.34c-3.242-2.895-5.986-5.638-8.132-8.331c-2.194-3.093-4.041-5.438-5.537-6.983
	c-1.546-1.547-3.392-2.345-5.536-2.345c-2.595,0-4.54,0.798-5.888,2.345C188.599,308.293,186.652,310.639,184.01,313.732z
	 M350.775,354.287l-2.594-3.989c-3.892-0.449-7.184-1.896-9.777-4.341s-4.989-4.738-7.184-6.983
	c-2.595-2.645-4.789-4.89-6.535-6.635c-1.746-1.746-3.492-2.645-5.188-2.645c-2.594,0-4.789,0.897-6.535,2.645
	c-1.745,1.796-3.69,3.99-5.887,6.635c-2.194,2.245-4.688,4.64-7.481,7.333c-2.845,2.644-6.834,3.991-12.072,3.991
	c-4.34,0-8.032-1.349-11.075-3.991c-3.043-2.644-5.438-5.088-7.184-7.333c-2.195-2.645-4.141-4.89-5.836-6.635
	c-1.746-1.746-3.892-2.645-6.535-2.645c-3.043,0-6.734,3.093-11.074,9.328c-2.195,2.245-4.789,4.64-7.832,7.333
	c-3.043,2.645-6.734,3.991-11.075,3.991c-4.789,0-8.779-1.197-12.071-3.643c-3.242-2.443-5.986-4.987-8.132-7.633
	c-2.194-2.194-4.041-4.34-5.538-6.335c-1.546-1.996-3.392-2.993-5.536-2.993c-2.595,0-4.54,0.897-5.887,2.645
	c-1.297,1.796-3.243,3.99-5.837,6.635c-2.194,2.245-4.688,4.64-7.482,7.333c-2.844,2.645-6.834,3.991-12.072,3.991
	c-4.789,0-8.581-1.099-11.424-3.343c-2.845-2.194-5.538-4.439-8.131-6.636c-0.898-0.896-2.595-2.443-5.188-4.639
	s-4.54-3.343-5.887-3.343v13.318c1.297,0.898,3.792,2.346,7.482,4.341c3.691,1.995,7.034,4.539,10.077,7.633
	c5.188,5.338,9.528,7.98,13.021,7.98c2.594,0,4.789-0.647,6.535-1.995c1.745-1.347,3.69-3.542,5.886-6.635
	c2.146-2.645,4.64-5.438,7.482-8.331c2.793-2.894,6.636-4.34,11.425-4.34s8.579,1.446,11.424,4.34
	c2.843,2.895,5.288,5.637,7.481,8.331c2.146,2.645,4.142,4.789,5.837,6.335c1.746,1.547,3.892,2.345,6.535,2.345
	c2.594,0,6.086-2.894,10.426-8.63c2.146-2.644,4.789-5.438,7.832-8.331c3.043-2.893,6.935-4.34,11.724-4.34
	c5.188,0,9.129,1.446,11.723,4.34c2.594,2.895,4.989,5.638,7.185,8.331c2.145,2.645,4.141,4.789,5.886,6.335
	c1.746,1.547,3.691,2.346,5.887,2.346c2.594,0,4.789-0.648,6.535-1.995c1.746-1.348,3.691-3.542,5.836-6.636
	c2.145-2.644,4.789-5.438,7.832-8.33c3.043-2.894,6.934-4.341,11.723-4.341c4.34,0,8.032,1.446,11.075,4.341
	c3.043,2.894,5.637,5.638,7.832,8.33c1.297,1.797,2.396,3.242,3.243,4.341c0.848,1.098,1.746,2.096,2.594,2.992L350.775,354.287z
	 M350.775,380.876l-4.54-5.338c-3.492-0.447-6.435-1.896-8.78-4.34c-2.395-2.444-4.439-4.739-6.186-6.982
	c-4.789-6.188-8.68-9.329-11.723-9.329c-4.341,0-8.48,2.645-12.372,7.98c-2.195,3.542-4.689,6.535-7.483,8.979
	c-2.843,2.443-6.834,3.642-12.072,3.642c-4.34,0-7.932-1.347-10.725-3.99c-2.844-2.645-5.338-5.537-7.483-8.631
	c-3.492-5.337-7.583-7.98-12.372-7.98c-3.491,0-7.184,2.645-11.074,7.98c-2.195,3.542-4.789,6.535-7.832,8.979
	c-3.043,2.443-6.735,3.642-11.075,3.642c-4.789,0-8.681-1.197-11.724-3.642c-3.043-2.445-5.886-5.438-8.479-8.979
	c-3.891-5.337-7.583-7.98-11.075-7.98c-2.594,0-4.688,0.647-6.186,1.996c-1.546,1.347-3.393,3.342-5.537,5.984
	c-2.595,3.542-5.188,6.535-7.832,8.979c-2.594,2.443-6.535,3.642-11.724,3.642c-4.789,0-8.579-1.097-11.424-3.342
	c-2.843-2.195-5.537-4.641-8.131-7.333c-2.195-2.195-4.24-3.742-6.186-4.641c-1.946-0.897-3.593-1.745-4.89-2.644v13.319
	c3.043,0.946,6.187,2.692,9.429,5.388c3.242,2.644,5.985,5.088,8.131,7.333c2.594,2.244,4.889,3.99,6.834,5.338
	c1.945,1.347,3.991,1.995,6.186,1.995c4.34,0,8.48-2.645,12.372-7.981c2.146-3.094,4.639-5.985,7.483-8.631
	c2.793-2.644,6.634-3.989,11.423-3.989s8.581,1.347,11.424,3.989c2.843,2.646,5.288,5.538,7.483,8.631
	c3.891,5.338,8.03,7.981,12.372,7.981c3.043,0,6.534-2.645,10.426-7.981c2.594-3.542,5.338-6.534,8.131-8.979
	s6.635-3.642,11.424-3.642c5.188,0,9.029,1.246,11.424,3.642c2.395,2.444,4.89,5.438,7.482,8.979
	c4.34,5.338,8.23,7.981,11.723,7.981c2.594,0,4.789-0.748,6.535-2.345c1.746-1.547,3.691-3.442,5.836-5.638
	c2.594-3.542,5.338-6.534,8.131-8.979s6.635-3.642,11.424-3.642c4.341,0,7.933,1.445,10.726,4.34
	c2.844,2.894,5.537,5.637,8.131,8.331l7.184,7.333L350.775,380.876z M350.775,408.163l-5.188-7.98
	c-3.491-0.897-6.186-2.544-8.131-4.988s-4.041-4.739-6.186-6.984c-4.789-5.735-8.68-8.63-11.723-8.63
	c-2.595,0-4.789,0.898-6.535,2.645c-1.746,1.796-3.691,3.792-5.887,5.985c-2.194,2.646-4.688,5.438-7.482,8.331
	c-2.844,2.895-6.834,4.341-12.072,4.341c-4.34,0-8.032-1.446-11.075-4.341c-3.043-2.894-5.438-5.637-7.183-8.331
	c-2.195-2.193-4.141-4.189-5.837-5.985c-1.746-1.745-3.892-2.645-6.535-2.645c-2.195,0-4.041,0.898-5.538,2.645
	c-1.546,1.796-3.392,3.792-5.537,5.985c-2.145,2.646-4.739,5.438-7.782,8.281c-3.043,2.895-6.733,4.34-11.073,4.34
	c-4.789,0-8.681-1.445-11.724-4.34c-3.043-2.894-5.887-5.637-8.479-8.331c-2.195-2.193-4.041-4.189-5.537-5.985
	c-1.547-1.746-3.394-2.645-5.538-2.645c-2.594,0-4.54,0.798-5.886,2.345c-1.297,1.546-3.243,3.643-5.836,6.335
	c-2.595,2.694-5.188,5.438-7.782,8.281c-2.594,2.895-6.535,4.34-11.723,4.34c-4.789,0-8.681-1.098-11.724-3.342
	c-3.043-2.195-5.637-4.439-7.832-6.635c-2.194-1.746-4.041-3.542-5.537-5.338c-1.546-1.746-3.392-2.645-5.537-2.645v13.968
	c5.638,0,11.523,3.791,17.609,11.323c5.188,5.338,9.528,7.982,13.021,7.982c2.594,0,4.788-0.898,6.534-2.646
	c1.746-1.746,3.691-3.989,5.887-6.635c2.145-2.644,4.639-5.338,7.482-7.98c2.793-2.645,6.635-3.991,11.424-3.991
	s8.58,1.348,11.424,3.991s5.287,5.338,7.482,7.98c2.146,2.646,4.142,4.889,5.836,6.635c1.746,1.796,3.892,2.646,6.535,2.646
	c1.746,0,3.342-0.998,4.889-2.993c1.497-1.996,3.343-4.091,5.538-6.336c2.146-3.093,4.789-5.887,7.832-8.331
	s6.935-3.642,11.724-3.642c5.188,0,9.129,1.348,11.723,3.99c2.594,2.644,4.988,5.338,7.184,7.981
	c2.146,2.644,4.141,4.889,5.887,6.635c1.746,1.796,3.69,2.645,5.887,2.645c2.594,0,4.789-0.897,6.535-2.645s3.69-3.991,5.836-6.635
	c2.146-2.645,4.789-5.338,7.832-7.981c3.043-2.643,6.934-3.99,11.723-3.99c4.34,0,8.032,1.348,11.075,3.99
	c3.043,2.644,5.637,5.338,7.832,7.981c1.746,2.245,3.043,3.991,3.891,5.338c0.849,1.347,2.146,2.444,3.892,3.342L350.775,408.163z
	 M350.775,434.752l-7.832-10.625c-3.043-0.897-5.338-2.443-6.834-4.64c-1.546-2.195-3.143-4.189-4.889-5.986
	c-5.188-5.338-9.129-7.98-11.724-7.98c-4.34,0-8.479,2.644-12.371,7.98c-2.194,3.094-4.688,5.986-7.482,8.631
	c-2.844,2.645-6.834,3.99-12.072,3.99c-4.34,0-7.932-1.446-10.725-4.34c-2.845-2.894-5.338-5.637-7.483-8.331
	c-3.492-5.338-7.583-7.98-12.372-7.98c-3.492,0-7.184,2.644-11.075,7.98c-2.194,3.093-4.789,5.986-7.832,8.631
	s-6.733,3.99-11.073,3.99c-4.789,0-8.78-1.347-12.072-3.99c-3.292-2.645-5.986-5.538-8.131-8.631
	c-2.195-2.644-4.041-4.64-5.537-5.985c-1.546-1.348-3.394-1.995-5.538-1.995c-2.594,0-4.689,0.647-6.186,1.995
	c-1.547,1.347-3.393,3.343-5.537,5.985c-2.595,3.093-5.188,5.986-7.832,8.631c-2.645,2.645-6.535,3.99-11.724,3.99
	c-4.789,0-8.68-1.098-11.723-3.342c-3.043-2.195-5.637-4.64-7.832-7.334c-1.746-1.746-3.492-3.643-5.188-5.637
	c-1.745-1.995-3.69-2.993-5.886-2.993v15.314c3.892,0.448,7.832,2.444,11.724,5.985c1.795,1.796,3.74,3.343,5.886,4.688
	c2.594,2.245,4.889,4.24,6.834,5.986c1.996,1.746,4.041,2.644,6.236,2.644c2.594,0,4.788-0.896,6.534-2.644
	c1.746-1.746,3.691-3.741,5.887-5.986c2.145-3.093,4.639-6.086,7.482-8.979c2.793-2.894,6.635-4.34,11.424-4.34
	s8.58,1.446,11.424,4.34s5.287,5.438,7.482,7.633c2.146,3.093,4.142,5.537,5.836,7.333c1.746,1.796,3.892,2.644,6.535,2.644
	c1.746,0,3.492-0.896,5.188-2.644c1.745-1.746,3.491-3.741,5.188-5.986c2.594-3.093,5.338-6.086,8.131-8.979s6.635-4.34,11.424-4.34
	c5.188,0,9.129,1.446,11.724,4.34c2.594,2.894,4.987,5.438,7.183,7.633c2.146,3.093,4.142,5.537,5.887,7.333
	c1.646,1.746,3.593,2.644,5.787,2.644c2.595,0,4.789-0.896,6.535-2.644c1.746-1.746,3.691-3.741,5.836-5.986
	c2.146-3.093,4.789-6.086,7.832-8.979s6.935-4.34,11.724-4.34c4.34,0,8.03,1.446,11.073,4.34s5.638,5.887,7.832,8.979
	c2.146,3.094,5.188,5.537,9.129,7.333L350.775,434.752z M342.993,451.365c-0.449-0.897-0.647-1.547-0.647-1.995
	c-2.595-0.898-4.689-2.444-6.187-4.64c-1.547-2.195-3.143-4.19-4.889-5.986c-5.188-6.186-9.129-9.328-11.723-9.328
	c-4.341,0-8.48,3.093-12.372,9.328c-2.195,2.644-4.689,5.438-7.483,8.331c-2.843,2.844-6.884,4.29-12.072,4.29
	c-4.34,0-7.932-1.547-10.725-4.64c-2.844-3.094-5.338-6.187-7.483-9.328c-3.891-5.338-8.031-7.981-12.372-7.981
	c-3.491,0-7.184,3.093-11.074,9.328c-2.245,2.644-4.84,5.438-7.883,8.281c-3.043,2.894-6.733,4.34-11.073,4.34
	c-4.789,0-8.681-1.446-11.724-4.34c-3.043-2.895-5.887-6.086-8.479-9.628c-4.34-5.338-8.032-7.981-11.075-7.981
	c-2.594,0-4.54,0.798-5.886,2.345c-1.297,1.547-3.243,3.892-5.836,6.983c-2.195,2.644-4.689,5.438-7.483,8.331
	c-2.844,2.844-6.834,4.29-12.021,4.29c-4.789,0-8.681-1.347-11.724-3.991c-3.043-2.644-5.637-5.088-7.832-7.333
	c-1.746-1.746-3.492-3.44-5.188-4.988c-1.746-1.547-3.691-2.345-5.887-2.345v13.319c2.595,0,7.832,3.542,15.614,10.626
	c0.449,0.448,2.195,1.995,5.188,4.639c3.043,2.646,6.284,3.991,9.776,3.991c2.595,0,4.789-0.648,6.535-1.995
	c1.746-1.348,3.692-3.343,5.887-5.986c2.146-2.645,4.64-5.438,7.483-8.33c2.793-2.895,6.635-4.341,11.423-4.341
	c4.789,0,8.581,1.348,11.424,3.99c2.845,2.646,5.288,5.538,7.483,8.631c3.891,5.338,8.032,7.981,12.372,7.981
	c3.492,0,6.934-2.645,10.426-7.981c2.594-2.645,5.338-5.438,8.131-8.331c2.793-2.893,6.635-4.34,11.424-4.34
	c5.188,0,9.029,1.347,11.425,3.99c2.395,2.645,4.889,5.538,7.481,8.631c3.892,5.337,7.832,7.981,11.724,7.981
	c2.594,0,4.788-0.648,6.534-1.995c1.746-1.349,3.691-3.344,5.836-5.986c2.146-2.645,4.789-5.438,7.832-8.331
	c3.043-2.893,6.935-4.34,11.724-4.34c4.34,0,8.03,1.446,11.074,4.34c3.043,2.895,5.637,5.637,7.831,8.331
	c2.146,2.244,3.792,3.99,4.89,5.337c1.098,1.349,2.693,2.245,4.889,2.646l2.594-3.991L342.993,451.365z M342.993,477.953
	c-0.449-0.449-0.647-1.995-0.647-4.64c-2.595-0.897-4.689-2.194-6.187-3.99c-1.547-1.746-3.143-3.741-4.889-5.986
	c-5.188-5.338-9.129-7.98-11.723-7.98c-4.341,0-8.48,2.644-12.372,7.98c-2.195,2.245-4.689,4.789-7.483,7.632
	c-2.843,2.895-6.834,4.342-12.072,4.342c-4.34,0-8.03-1.447-11.075-4.342c-3.043-2.893-5.438-5.438-7.183-7.632
	c-2.195-2.645-4.141-4.64-5.837-5.985c-1.746-1.348-3.891-1.995-6.535-1.995c-3.492,0-7.184,2.644-11.075,7.98
	c-2.194,2.244-4.789,4.789-7.832,7.632c-3.043,2.895-6.733,4.342-11.073,4.342c-4.789,0-8.78-1.349-12.072-3.991
	c-3.292-2.644-5.986-5.338-8.131-7.981c-2.195-2.194-4.041-4.091-5.537-5.638c-1.546-1.546-3.394-2.344-5.538-2.344
	c-2.594,0-4.54,0.647-5.886,1.995c-1.297,1.347-3.243,3.342-5.836,5.985c-2.195,2.244-4.689,4.789-7.483,7.632
	c-2.844,2.895-6.834,4.342-12.072,4.342c-4.789,0-8.58-0.998-11.424-2.993c-2.843-1.996-5.537-4.341-8.131-6.984
	c-5.188-5.338-8.929-7.98-11.074-7.98v13.318c1.297,0.897,3.791,2.444,7.482,4.641c3.691,2.243,7.034,4.639,10.077,7.333
	c5.188,5.338,9.527,7.98,13.02,7.98c2.594,0,4.789-0.748,6.535-2.345c1.746-1.547,3.692-3.643,5.887-6.336
	c2.146-2.194,4.64-4.738,7.483-7.632c2.793-2.895,6.635-4.34,11.423-4.34c4.789,0,8.581,1.445,11.424,4.34
	c2.843,2.894,5.288,5.438,7.483,7.632c2.145,2.645,4.141,4.789,5.836,6.336c1.746,1.547,3.891,2.345,6.535,2.345
	c3.491,0,6.934-2.894,10.426-8.63c2.594-2.195,5.338-4.739,8.131-7.633c2.793-2.895,6.635-4.34,11.424-4.34
	c5.188,0,9.129,1.445,11.724,4.34c2.594,2.894,4.987,5.438,7.183,7.633c2.145,2.644,4.141,4.789,5.887,6.335
	c1.746,1.547,3.691,2.345,5.886,2.345c2.595,0,4.789-0.748,6.535-2.345c1.746-1.546,3.691-3.642,5.836-6.335
	c2.146-2.195,4.789-4.739,7.832-7.633c3.043-2.895,6.935-4.34,11.724-4.34c4.34,0,8.03,1.445,11.073,4.34
	c3.044,2.894,5.638,5.438,7.832,7.633c3.892,5.337,7.583,8.23,11.075,8.63l1.297-1.995L342.993,477.953z M342.993,505.24
	c-1.297-1.746-1.297-3.741,0-5.986c-3.043-0.896-5.338-2.345-6.834-4.34c-1.547-1.995-3.143-4.091-4.889-6.336
	c-5.188-5.736-9.129-8.63-11.723-8.63c-4.341,0-8.48,2.645-12.372,7.98c-2.195,3.095-4.689,5.986-7.483,8.632
	c-2.843,2.644-6.834,3.989-12.072,3.989c-4.34,0-8.03-1.347-11.075-3.989c-3.043-2.646-5.438-5.537-7.183-8.632
	c-2.195-2.644-4.141-4.639-5.837-5.985c-1.746-1.348-3.891-1.995-6.535-1.995c-3.492,0-7.184,2.645-11.075,7.98
	c-2.194,3.095-4.789,5.986-7.832,8.632c-3.043,2.644-6.733,3.989-11.073,3.989c-4.789,0-8.681-1.347-11.724-3.989
	c-3.043-2.646-5.886-5.537-8.479-8.632c-3.892-5.337-7.583-7.98-11.075-7.98c-2.594,0-4.689,0.647-6.187,1.995
	c-1.546,1.348-3.392,3.343-5.536,5.985c-2.595,3.095-5.188,5.986-7.832,8.632c-2.645,2.644-6.535,3.989-11.724,3.989
	c-4.789,0-8.68-1.098-11.723-3.342c-3.043-2.195-5.637-4.64-7.832-7.333c-3.043-3.542-5.537-5.737-7.482-6.635
	c-1.945-0.898-3.143-1.348-3.592-1.348v13.968c2.594,0.897,5.637,2.545,9.129,4.989c3.492,2.443,6.286,4.987,8.48,7.632
	c2.594,2.245,4.889,3.991,6.834,5.338c1.946,1.347,3.991,1.996,6.186,1.996c2.595,0,4.789-0.649,6.535-1.996
	s3.691-3.342,5.886-5.986c2.146-3.542,4.64-6.535,7.483-8.979c2.793-2.444,6.635-3.643,11.423-3.643
	c4.789,0,8.581,1.349,11.424,3.991c2.845,2.645,5.288,5.537,7.483,8.63c3.492,5.338,7.583,7.981,12.372,7.981
	c3.043,0,6.535-2.645,10.426-7.981c2.146-3.542,4.789-6.535,7.832-8.979c3.043-2.444,6.934-3.643,11.723-3.643
	c5.188,0,9.029,1.248,11.425,3.643c2.395,2.443,4.889,5.438,7.481,8.979c3.892,5.338,7.832,7.981,11.723,7.981
	c4.341,0,8.48-2.645,12.372-7.981c2.595-3.542,5.339-6.535,8.132-8.979c2.793-2.444,6.635-3.643,11.424-3.643
	c4.34,0,8.03,1.248,11.073,3.643c3.044,2.443,5.638,5.438,7.832,8.979c3.892,5.338,7.832,7.981,11.724,7.981h0.647L342.993,505.24z
	 M319.548,519.208c4.34,0,8.03,1.446,11.073,4.34c3.043,2.895,5.638,5.639,7.832,8.331c3.892,5.338,7.583,7.981,11.075,7.981
	l-6.535-7.981c-2.194-1.746-2.194-3.741,0-5.985l1.297-1.348c-3.043-0.897-5.537-2.345-7.481-4.34
	c-1.946-1.996-3.792-4.091-5.538-6.336c-2.594-2.644-4.789-4.988-6.535-6.983c-1.746-1.996-3.492-2.992-5.188-2.992
	c-2.595,0-4.789,0.996-6.535,2.992c-1.746,1.995-3.691,4.341-5.887,6.983c-2.194,2.245-4.688,4.789-7.482,7.633
	c-2.844,2.895-6.834,4.34-12.072,4.34c-4.34,0-8.032-1.445-11.075-4.34c-3.043-2.894-5.438-5.438-7.183-7.633
	c-2.195-2.644-4.141-4.988-5.837-6.983c-1.746-1.996-3.892-2.992-6.535-2.992c-2.195,0-4.041,0.996-5.538,2.992
	c-1.546,1.995-3.392,4.341-5.537,6.983c-2.195,2.245-4.789,4.789-7.832,7.633c-3.043,2.895-6.733,4.34-11.074,4.34
	c-4.789,0-8.779-1.347-12.071-3.99c-3.292-2.645-5.986-5.337-8.131-7.981c-2.195-2.194-4.041-4.439-5.538-6.635
	c-1.546-2.194-3.393-3.342-5.537-3.342c-2.594,0-4.54,0.996-5.887,2.992c-1.297,1.995-3.242,4.341-5.837,6.983
	c-2.194,2.245-4.688,4.789-7.481,7.633c-2.844,2.895-6.834,4.34-12.072,4.34c-4.789,0-8.68-0.998-11.723-2.993
	c-3.043-1.994-5.638-4.34-7.832-6.982c-0.798-0.898-2.645-2.444-5.438-4.64c-2.843-2.195-4.688-3.344-5.537-3.344v13.319
	c3.892,0.898,7.283,2.545,10.077,4.989c2.844,2.443,5.288,4.789,7.483,6.982c4.34,4.44,8.68,6.636,13.02,6.636
	c2.595,0,4.789-0.648,6.535-1.995c1.746-1.348,3.692-3.344,5.887-5.986c2.146-2.644,4.64-5.438,7.483-8.331
	c2.793-2.894,6.635-4.34,11.423-4.34c4.789,0,8.581,1.446,11.424,4.34c2.845,2.895,5.288,5.638,7.483,8.331
	c2.145,2.644,4.141,4.64,5.836,5.986c1.746,1.347,3.891,1.995,6.535,1.995c2.594,0,6.086-2.645,10.426-7.981
	c2.146-3.093,4.789-5.986,7.832-8.63c3.043-2.646,6.934-3.991,11.723-3.991c5.188,0,9.13,1.447,11.724,4.34
	c2.594,2.895,4.987,5.639,7.183,8.331c4.34,5.338,8.231,7.981,11.724,7.981c2.594,0,4.788-0.648,6.534-1.995
	s3.691-3.343,5.836-5.986c2.146-2.643,4.789-5.438,7.832-8.331C310.817,520.655,314.759,519.208,319.548,519.208z M383.351,557.771
	V285.148l-7.832-1.995v28.584c0,0.897-0.2,1.995-0.648,3.342c-0.448,1.349-1.746,1.996-3.891,1.996
	c-3.492,0-5.188-1.746-5.188-5.338v-31.278l-5.887-1.347l-6.535,8.63l7.832,9.979c1.746,1.796,1.746,3.791,0,5.985l-7.832,9.978
	v0.647l7.832,9.979c1.297,2.244,1.297,3.989,0,5.338l-8.479,11.972l8.479,9.979c1.297,1.347,1.297,3.093,0,5.338l-7.832,11.323
	l7.832,9.978c1.297,2.245,1.297,4.439,0,6.635l-7.832,9.978l7.832,10.626c1.746,2.245,1.746,4.24,0,5.985l-7.832,9.978l7.832,11.323
	c0.849,1.348,0.849,2.895,0,4.641l-7.832,10.625l7.185,9.978c2.145,2.645,2.145,5.088,0,7.333l-7.185,9.328l7.185,9.979
	c1.746,2.244,1.945,4.239,0.647,5.985l-7.832,11.974l7.832,10.625c1.297,1.347,1.297,3.093,0,5.338l-7.832,10.626l7.832,10.625
	c1.746,1.796,1.746,3.542,0,5.338l-7.832,9.978l6.535,8.631l5.887-1.348v-230.72c0-3.542,1.746-5.338,5.188-5.338
	c3.043,0,4.54,1.796,4.54,5.338V559.77L383.351,557.771z M393.127,556.423h272.972V285.795H393.127V556.423z M528.615,521.853
	c-16.961,0-32.873-2.645-47.889-7.981c-14.967-5.337-28.037-12.521-39.111-21.6c-11.072-9.079-19.854-19.705-26.388-31.928
	c-6.535-12.172-9.777-25.392-9.777-39.56c0-14.167,3.242-27.485,9.777-39.908c6.535-12.421,15.314-23.146,26.388-32.274
	c11.074-9.079,24.098-16.313,39.111-21.602c14.965-5.338,30.928-7.98,47.889-7.98s32.875,2.644,47.891,7.98
	c14.965,5.339,28.035,12.521,39.061,21.602c11.074,9.079,19.855,19.854,26.391,32.274c6.533,12.423,9.775,25.691,9.775,39.908
	c0,14.168-3.242,27.388-9.775,39.56c-6.535,12.223-15.314,22.849-26.391,31.928s-24.096,16.313-39.061,21.6
	C561.539,519.208,545.576,521.853,528.615,521.853z M528.615,340.32c-13.02,0-25.541,2.096-37.463,6.336
	c-11.973,4.24-22.35,9.978-31.277,17.311c-8.93,7.333-15.965,15.863-21.15,25.592c-5.189,9.776-7.832,20.152-7.832,31.276
	c0,11.075,2.594,21.401,7.832,30.93c5.188,9.527,12.27,17.858,21.15,24.942s19.307,12.621,31.277,16.611
	c11.922,3.991,24.443,5.985,37.463,5.985c13.471,0,26.041-1.994,37.764-5.985c11.723-3.99,22.049-9.527,30.928-16.611
	c8.881-7.084,15.965-15.415,21.152-24.942s7.832-19.854,7.832-30.93c0-11.073-2.594-21.5-7.832-31.276
	c-5.188-9.729-12.271-18.31-21.152-25.592c-8.928-7.333-19.205-13.069-30.928-17.311C554.705,342.415,542.085,340.32,528.615,340.32
	z M479.777,416.794c-3.492,4.89-8.479,7.333-14.965,7.333c-6.535,0-9.777-3.343-9.777-9.978v-23.944c0-3.093,1.496-4.64,4.539-4.64
	h16.961c0.85,0,1.299,0.449,1.299,1.347v2.646c0,0.896-0.648,1.347-1.945,1.347h-2.594c-1.746,0-2.596,0.897-2.596,2.645v17.908
	c0,1.796,0.85,2.645,2.596,2.645c2.145,0,4.34-0.648,6.533-1.995v-21.949c0-3.094,1.299-4.64,3.893-4.64h16.313
	c0.848,0,1.297,0.449,1.297,1.347v2.646c0,0.896-0.449,1.347-1.297,1.347h-1.945c-2.195,0-3.242,0.896-3.242,2.644v17.959
	c0,1.796,1.098,2.645,3.242,2.645c1.746,0,2.793-0.199,3.242-0.648c1.746-1.746,2.594-1.746,2.594,0l1.297,1.995v1.348
	c-3.891,4.89-9.578,7.333-16.961,7.333C483.021,424.127,480.226,421.684,479.777,416.794z M490.851,428.768
	c21.701,0,32.576,4.438,32.576,13.318c0,9.777-10.875,14.616-32.576,14.616c-21.699,0-32.574-4.889-32.574-14.616
	C458.277,433.206,469.152,428.768,490.851,428.768z M490.851,450.019c11.275,0,16.963-2.646,16.963-7.981
	c0-5.338-5.639-7.982-16.963-7.982c-10.426,0-15.613,2.646-15.613,7.982C475.238,447.373,480.427,450.019,490.851,450.019z
	 M528.615,401.48c1.299,0,1.945,0.897,1.945,2.645v1.995c0,1.348-0.646,1.995-1.945,1.995h-7.184v13.319
	c0,3.094-1.098,4.64-3.242,4.64h-7.184c-3.043,0-4.539-1.546-4.539-4.64V388.16c0-2.193,1.496-3.342,4.539-3.342h7.184
	c2.146,0,3.242,1.098,3.242,3.342v13.319H528.615L528.615,401.48z M600.949,444.731c1.746,0,2.594,0.448,2.594,1.347v3.343
	c0,0.448-0.848,0.648-2.594,0.648H535.15c-1.297,0-1.943-0.2-1.943-0.648v-3.343c0-0.897,0.646-1.347,1.943-1.347H600.949z
	 M535.8,430.114c0-0.898,0.199-1.347,0.646-1.347c14.766-4.44,22.148-15.066,22.148-31.927v-8.632c0-2.193,1.498-3.342,4.541-3.342
	h9.777c3.49,0,5.188,1.099,5.188,3.342v8.632c0,2.243-0.199,4.639-0.648,7.333c-0.449,2.644-1.098,5.088-1.945,7.333
	c0.848,7.98,5.438,9.776,13.668,5.338c0.848-0.449,2.395-0.648,4.541-0.648c1.744,0,3.342,0.648,4.889,1.995
	c1.496,1.347,2.293,3.342,2.293,5.985c0,2.645-1.096,4.988-3.242,6.984c-2.193,1.995-4.986,2.993-8.479,2.993
	c-5.189,0-9.428-1.646-12.721-4.989c-3.242-3.342-5.09-7.433-5.537-12.32c-3.492,4.889-7.934,8.529-13.369,10.975
	c-5.438,2.445-12.072,4.091-19.854,4.988c-1.297,0-1.945-0.448-1.945-1.348v-1.347L535.8,430.114L535.8,430.114z M706.457,502.547
	l-7.832-11.973c-1.297-1.746-1.297-3.343,0-4.64l7.832-11.324l-7.832-9.978c-0.898-0.897-1.297-1.995-1.297-3.343
	c0-1.347,0.449-2.444,1.297-3.342l7.832-9.979l-7.832-10.625c-2.195-1.745-2.195-3.74,0-5.985l7.832-9.978l-7.832-9.978
	c-0.898-0.897-1.297-1.896-1.297-2.993c0-1.097,0.449-2.096,1.297-2.993l7.832-10.626l-7.832-9.977
	c-1.297-1.348-1.846-2.544-1.646-3.642c0.201-1.099,0.748-2.097,1.646-2.993l7.832-9.979l-7.832-11.323
	c-1.297-1.745-1.297-3.542,0-5.338l7.832-11.323l-7.832-10.626c-1.297-1.745-1.297-3.541,0-5.338l7.832-10.626l-7.832-9.977
	c-1.297-1.746-1.297-3.742,0-5.986l7.832-9.978l-5.838-8.63h-3.242l-3.891,1.347v0.648c0,0.448,0.1,0.647,0.35,0.647
	c0.199,0,0.299,0.25,0.299,0.648v226.079c0,3.542-1.547,5.339-4.539,5.339c-3.492,0-5.189-1.746-5.189-5.339V283.152l-7.832,1.995
	V557.77l7.832,1.994v-26.589c0-3.093,1.746-4.639,5.189-4.639c3.043,0,4.539,1.546,4.539,4.639v27.287
	c0,0.449-0.199,0.898-0.648,1.349v0.647l3.893,1.347h3.242l5.838-8.63l-7.832-9.978c-1.746-1.746-1.746-3.741,0-5.986l7.832-9.977
	l-7.832-10.626c-1.297-2.194-1.297-3.99,0-5.338L706.457,502.547z"/>
</svg>
