<?xml version="1.0" encoding="utf-8"?>
<!-- Generator: Adobe Illustrator 16.0.0, SVG Export Plug-In . SVG Version: 6.00 Build 0)  -->
<!DOCTYPE svg PUBLIC "-//W3C//DTD SVG 1.1//EN" "http://www.w3.org/Graphics/SVG/1.1/DTD/svg11.dtd">
<svg version="1.1" id="레이어_1" xmlns="http://www.w3.org/2000/svg" xmlns:xlink="http://www.w3.org/1999/xlink" x="0px"
	 y="0px" width="841.89px" height="841.891px" viewBox="0 0 841.89 841.891" enable-background="new 0 0 841.89 841.891"
	 xml:space="preserve">
<path fill="#BF0D23" stroke="#BF0D23" stroke-width="0.3" stroke-miterlimit="10" d="M694.386,570.206
	c5.982,0,11.352,2.225,16.031,6.674c4.678,4.447,6.979,9.74,6.979,15.877v23.471c0,6.136-2.377,11.275-6.979,15.34
	c-4.682,4.065-9.664,6.137-15.033,6.137h-75.092l-15.033,71.563c-1.381,2.761-2.688,4.448-3.988,5.139
	c-1.381,0.69-2.686,0.997-3.988,0.997H244.686c-2.685,0-5.369-2.07-7.977-6.136l-15.033-71.563h-75.168
	c-5.369,0-10.355-2.07-15.034-6.137c-4.679-4.063-6.98-9.204-6.98-15.34V592.68c0-17.027,7.67-24.544,23.011-22.474l62.128,10.201
	l-12.042-58.293H158.55c-7.363,0-11.045-3.759-11.045-11.274v-31.679c0-7.517,3.682-11.274,11.045-11.274h53.077l-21.016-82.838
	c-1.38-4.065,0.997-6.826,6.98-8.207l44.104-11.275c1.994-1.38,4.372-1.38,6.979,0l27.076,8.207
	c2.685,1.381,4.295,3.452,4.986,6.138l4.985,19.404l33.059-9.204c3.988-0.689,7.977-0.689,12.042,0l24.007,7.134
	c3.375,1.381,5.369,3.759,5.983,7.134l9.051,41.956c2.685-1.382,6.366-2.071,11.045-2.071c7.977,0,15.494,2.225,22.55,6.673
	c6.98,4.449,12.502,10.048,16.491,16.875h54.074c-1.381-8.207-0.537-16.031,2.531-23.548c2.992-7.518,7.364-14.343,13.04-20.479
	c5.676-6.136,12.043-10.892,19.021-14.343c6.979-3.375,14.188-5.14,21.555-5.14c5.367,0,9.815,0.69,13.498,2.071
	c3.681,1.381,7.517,3.067,11.505,5.139c6.672-13.652,14.65-24.161,24.008-31.678c9.359-7.518,18.332-10.893,27.074-10.201
	l32.063,12.271c10.662,5.445,17.027,16.03,19.021,31.679c1.994,15.647-0.689,32.752-7.977,51.159v3.068h34.055
	c3.299,0,5.982,1.38,7.979,4.063c1.994,2.763,2.99,5.141,2.99,7.135v31.678c0,7.517-3.682,11.274-11.045,11.274H644.3
	l-12.043,58.294L694.386,570.206z M219.681,624.434l-5.982-27.612l-67.114-10.201c-4.679-0.689-6.98,1.381-6.98,6.137v23.471
	c0,5.446,2.301,8.207,6.98,8.207L219.681,624.434L219.681,624.434z M161.541,506.851h518.809v-22.474H161.541V506.851z
	 M236.709,382.135l-28.073,7.133l18.025,78.696h31.064L236.709,382.135z M629.343,522.191H212.625l9.051,39.885h103.163
	c5.369,0,7.977,1.688,7.977,5.14c0,5.445-2.685,8.207-7.977,8.207H224.667l3.988,18.408h55.072c4.679,0,6.98,2.762,6.98,8.207
	s-2.378,8.207-6.98,8.207h-52.08l20.019,89.972h338.561L629.343,522.191z M266.699,388.27l-11.045-4.064l19.022,83.834h11.045
	L266.699,388.27z M288.789,412.738l12.042,55.227h31.064l-14.036-60.288L288.789,412.738z M346.852,411.741l-11.045-3.068
	l11.045,52.156c3.988-4.063,6.979-6.825,9.051-8.207L346.852,411.741z M400.927,467.964c-1.994-2.071-4.832-4.065-8.514-6.138
	c-3.682-2.069-7.517-3.066-11.505-3.066c-3.375,0-7.21,0.997-11.505,3.066c-4.372,2.071-7.824,4.065-10.508,6.138H400.927z
	 M455.998,248.136c0-5.445-1.15-9.511-3.527-12.272c-2.379-2.685-6.213-4.755-11.506-6.136c-5.982-2.071-11.197-4.756-15.494-8.207
	c-4.371-3.375-6.519-9.511-6.519-18.408c0-5.445,1.534-10.892,4.524-16.338c2.992-5.444,6.826-10.201,11.506-14.343
	c5.369-5.446,10.051-8.207,14.037-8.207c4.678,0,6.98,2.378,6.98,7.133c0,2.763-1.15,5.141-3.527,7.135
	c-2.379,2.069-4.68,4.063-6.98,6.136c-2.377,2.07-4.678,4.756-6.98,8.207c-2.377,3.452-3.527,7.517-3.527,12.271
	s4.295,8.897,13.039,12.272c5.369,2.069,10.662,4.755,16.031,8.207c5.369,3.451,7.977,10.892,7.977,22.474s-2.529,19.1-7.518,22.475
	c-4.984,3.45-9.51,6.136-13.498,8.206c-3.375,1.381-5.98,3.067-7.979,5.14c-1.994,2.071-2.99,5.445-2.99,10.201
	s-2.686,7.133-7.977,7.133c-5.369,0-7.977-3.374-7.977-10.201c0-8.207,1.686-13.806,4.984-16.874
	c3.297-3.068,6.979-5.292,11.045-6.673c3.986-1.381,7.67-3.222,11.045-5.601C454.388,259.565,455.998,254.963,455.998,248.136z
	 M529.172,419.948c-12.043,0-22.014,5.141-30.066,15.341c-7.979,10.201-12.043,21.17-12.043,32.751h79.155
	c0-14.343-3.836-25.925-11.506-34.744C546.966,424.397,538.529,419.948,529.172,419.948z M528.174,210.323
	c0-6.137-1.994-10.585-5.982-13.27c-3.987-2.685-8.358-5.292-13.039-7.67c-4.678-2.378-9.051-5.446-13.039-9.204
	c-3.987-3.759-5.981-9.357-5.981-16.875c0-6.826,1.305-12.579,3.988-17.411c2.686-4.755,5.676-8.667,9.051-11.734
	c3.299-3.067,6.826-5.14,10.508-6.137s6.137-1.534,7.518-1.534c4.679,0,6.979,2.071,6.979,6.137c0,2.762-1.15,4.985-3.527,6.674
	c-2.377,1.688-4.832,3.604-7.518,5.599c-2.685,2.071-5.215,4.449-7.517,7.134c-2.379,2.762-3.528,6.521-3.528,11.274
	c0,4.065,1.994,7.363,5.983,9.741c3.988,2.378,8.13,4.984,12.502,7.67c4.296,2.762,8.515,6.29,12.503,10.738
	c3.987,4.448,5.981,10.737,5.981,18.944c0,10.893-2.531,17.872-7.518,20.939c-4.984,3.067-9.894,5.982-14.496,8.668
	c-3.375,1.38-5.982,3.066-7.978,5.139s-2.991,5.14-2.991,9.204c0,6.136-2.685,9.204-7.978,9.204c-4.678,0-6.979-3.375-6.979-10.201
	c0-7.517,1.688-12.81,4.983-15.877c3.299-3.068,7.133-5.6,11.506-7.67c4.371-2.071,8.207-4.219,11.507-6.674
	C526.486,220.755,528.174,216.459,528.174,210.323z M606.255,386.199c-10.047,0-18.178,4.448-24.543,13.27
	c-6.367,8.897-11.199,16.721-14.498,23.548c5.369,5.445,9.205,12.119,11.506,19.941c2.301,7.823,3.529,16.185,3.529,25.081h23.01
	c2.684-4.064,5.369-10.048,7.977-17.87c2.688-7.823,4.297-16.03,4.986-24.546c0.689-8.514,0.152-16.49-1.535-24.008
	C615.078,394.023,611.625,388.884,606.255,386.199z M622.287,248.136c0-6.136-1.994-10.585-5.982-13.271
	c-3.988-2.685-8.361-5.292-13.039-7.67c-4.68-2.378-9.051-5.292-13.039-8.667s-5.98-8.82-5.98-16.338
	c0-9.511,3.525-18.023,10.508-25.541c6.98-7.517,13.189-11.274,18.561-11.274c5.369,0,7.979,2.378,7.979,7.133
	c0,2.762-0.998,4.986-2.992,6.674c-1.994,1.688-4.371,3.451-6.98,5.139c-2.684,1.688-4.982,3.912-6.979,6.674
	c-1.994,2.762-2.992,6.52-2.992,11.274s1.994,8.054,5.982,9.741c3.988,1.687,8.131,3.758,12.504,6.136
	c4.371,2.378,8.514,5.601,12.502,9.741s5.982,10.892,5.982,20.479c0,8.897-1.688,15.188-4.986,18.945
	c-3.375,3.758-6.979,6.673-11.045,8.667c-3.988,2.071-7.67,4.065-11.045,6.136c-3.375,2.071-4.986,5.83-4.986,11.275
	c0,6.137-2.684,9.204-7.977,9.204c-5.369,0-7.977-3.375-7.977-10.201c0-7.517,1.688-12.809,4.986-15.877
	c3.297-3.068,6.979-5.446,11.045-7.134c3.988-1.688,7.67-3.911,11.045-6.673C620.599,259.719,622.287,254.963,622.287,248.136z
	 M630.341,396.4c3.988,11.582,4.678,23.548,1.994,35.82c-2.686,12.271-6.367,24.236-11.045,35.818h11.045
	c2.684-3.375,4.832-8.514,6.52-15.34c1.689-6.827,2.686-13.96,2.99-21.477c0.307-7.518-0.307-14.497-1.994-20.938
	C638.164,403.764,634.943,399.162,630.341,396.4z M702.441,592.757c0-4.065-2.379-6.137-6.98-6.137l-67.113,10.201l-5.984,27.612
	h73.1c4.678,0,6.979-2.685,6.979-8.207V592.757L702.441,592.757z"/>
</svg>
