<?xml version="1.0" encoding="utf-8"?>
<!-- Generator: Adobe Illustrator 16.0.0, SVG Export Plug-In . SVG Version: 6.00 Build 0)  -->
<!DOCTYPE svg PUBLIC "-//W3C//DTD SVG 1.1//EN" "http://www.w3.org/Graphics/SVG/1.1/DTD/svg11.dtd">
<svg version="1.1" id="레이어_1" xmlns="http://www.w3.org/2000/svg" xmlns:xlink="http://www.w3.org/1999/xlink" x="0px"
	 y="0px" width="841.89px" height="841.891px" viewBox="0 0 841.89 841.891" enable-background="new 0 0 841.89 841.891"
	 xml:space="preserve">
<path fill="#BF0D23" stroke="#BF0D23" stroke-width="0.3" stroke-miterlimit="10" d="M687.115,346.76v359.602h8.906
	c8.221,0,13.787,1.112,16.785,3.426c2.998,2.313,4.453,6.852,4.453,13.702v16.015c0,6.853-1.541,11.392-4.453,13.702
	c-2.998,2.313-8.564,3.426-16.785,3.426H145.787c-14.216,0-21.238-6.423-21.238-19.439V723.49c0-11.391,7.107-17.128,21.238-17.128
	h8.906V346.76h-8.906c-14.216,0-21.238-6.079-21.238-18.24v-14.815c0-6.08,1.456-10.448,4.452-13.103
	c2.998-2.655,8.564-4.025,16.786-4.025H296.77c-19.355-12.161-36.568-27.576-51.47-46.245
	c-14.901-18.67-22.353-42.049-22.353-70.225c0-26.634,7.622-49.071,22.951-67.398c15.244-18.241,36.311-27.403,63.202-27.403
	c26.12,0,45.988,7.621,59.861,22.864c13.788,15.244,20.726,31.603,20.726,49.072c0,19.782-4.881,36.396-14.56,49.671
	c-9.677,13.359-18.669,19.953-26.805,19.953c-9.677,0-14.559-4.538-14.559-13.702c0-6.08,3.34-11.39,10.104-16.015
	c2.228-2.313,4.796-4.967,7.793-7.964c1.456-2.998,3.169-7.022,5.054-11.99c1.884-4.967,2.825-11.562,2.825-19.953
	c0-12.932-5.224-23.037-15.672-30.231c-10.448-7.192-22.009-10.876-34.684-10.876c-17.898,0-31.688,6.252-41.364,18.842
	c-9.677,12.589-14.559,27.575-14.559,45.132c0,18.241,4.109,34.256,12.332,47.958c8.221,13.702,18.069,25.093,29.631,34.256
	c11.561,9.163,24.063,16.356,37.424,21.667c13.445,5.31,25.349,9.506,35.797,12.589h327.657c14.131,0,21.238,5.738,21.238,17.128
	v14.815c0,12.161-7.107,18.24-21.238,18.24L687.115,346.76L687.115,346.76z M141.334,326.206c0,2.313,1.456,3.426,4.453,3.426
	h551.347c2.227,0,3.34-0.771,3.34-2.312v-13.703c0-1.541-1.113-2.313-3.34-2.313H145.787c-2.998,0-4.454,1.113-4.454,3.426
	L141.334,326.206L141.334,326.206z M141.334,737.192c0,2.313,1.456,3.426,4.453,3.426h551.347c2.227,0,3.34-0.771,3.34-2.313
	v-13.702c0-1.541-1.113-2.313-3.34-2.313H145.787c-2.998,0-4.454,1.113-4.454,3.426L141.334,737.192L141.334,737.192z
	 M669.216,706.362V346.76H172.679v359.602H669.216z M411.955,685.807c-22.352,0-44.019-4.023-64.829-11.988
	c-20.896-7.965-39.309-19.013-55.322-33.144c-16.016-14.045-28.689-30.83-38.024-50.271c-9.335-19.439-13.959-40.508-13.959-63.373
	s4.625-43.763,13.959-62.773c9.334-19.012,22.009-35.541,38.024-49.671c16.015-14.045,34.513-25.093,55.322-33.143
	c20.896-7.965,42.478-11.99,64.829-11.99c23.125,0,45.134,4.025,65.941,11.99c20.896,7.964,39.141,19.012,54.813,33.143
	c15.67,14.13,28.174,30.659,37.508,49.671s13.959,39.993,13.959,62.773c0,22.779-4.625,43.934-13.959,63.373
	s-21.838,36.141-37.508,50.271c-15.672,14.131-33.914,25.093-54.813,33.144C457.089,681.782,435.08,685.807,411.955,685.807z
	 M269.966,527.117c0,18.241,3.682,35.369,11.219,51.384c7.451,16.015,17.47,30.06,30.229,42.22
	c12.676,12.161,27.748,21.667,45.304,28.52c17.471,6.851,35.969,10.275,55.322,10.275c20.125,0,38.965-3.426,56.436-10.275
	c17.471-6.853,32.801-16.357,45.818-28.52c13.016-12.16,23.465-26.291,31.344-42.22s11.732-33.143,11.732-51.384
	c0-17.471-3.939-34.085-11.732-49.671c-7.793-15.587-18.242-29.289-31.344-41.107c-13.018-11.817-28.348-21.152-45.818-28.004
	c-17.555-6.852-36.311-10.276-56.436-10.276c-19.439,0-37.853,3.426-55.322,10.276c-17.557,6.852-32.628,16.187-45.304,28.004
	c-12.674,11.818-22.779,25.521-30.229,41.107C273.647,493.032,269.966,509.561,269.966,527.117z M359.372,612.671
	c-2.227-2.997-3.768-6.423-4.453-10.276c-0.771-3.769-1.542-7.621-2.227-11.391c-0.771-3.768-1.113-7.622-1.113-11.39
	c-21.667-4.539-37.253-10.277-46.931-17.128c-2.227-1.542-4.282-3.255-6.166-5.14c-1.884-1.884-2.398-4.71-1.712-8.563l3.34-22.866
	c0-3.768,1.884-4.967,5.566-3.426c5.994,2.313,9.677,2.142,11.219-0.601c1.456-2.653,2.998-5.907,4.453-9.677
	c1.456-6.08,3.511-11.219,6.166-15.415c2.568-4.196,5.396-8.563,8.393-13.103c-3.768,0.771-6.166-0.172-7.279-2.826
	c-1.113-2.655-1.713-5.481-1.713-8.564c0-2.313,0.771-6.423,2.228-12.589l2.227-6.852l6.681,2.313
	c1.456,0.771,3.169,1.542,5.053,2.313c1.884,0.771,3.511,1.541,5.053,2.313c5.224,3.083,7.793,6.509,7.793,10.276
	c11.904-6.852,24.236-11.818,36.911-14.815c12.674-2.997,22.352-4.539,29.117-4.539c9.678,0,19.355,1.113,29.117,3.427
	c9.678,2.313,18.412,5.909,26.291,10.876c7.793,4.967,14.559,11.817,20.127,20.554c5.566,8.735,8.734,19.611,9.506,32.543
	c2.229,2.313,5.223,3.854,8.906,4.539c-1.543-2.998-2.227-4.968-2.227-5.738c0-7.622,3.682-11.39,11.219-11.39
	c8.221,0,12.332,3.854,12.332,11.39c0,6.08-2.998,10.277-8.906,12.589c4.453,1.542,8.563,1.113,12.332-1.112
	c3.682-2.313,5.564-1.541,5.564,2.313c0,5.311-4.109,7.965-12.33,7.965c-6.68,0-11.563-2.313-14.559-6.852
	c-3.77,0-7.793-1.541-12.332-4.539c0,11.391-1.543,22.096-4.453,31.943c-2.998,9.935-6.166,18.499-9.508,25.691
	c-3.34,7.279-6.508,12.933-9.506,17.128c-2.996,4.196-4.881,6.681-5.566,7.45h-14.559c-2.996-4.539-4.881-9.677-5.566-15.415
	c-0.77-5.736-1.541-10.448-2.227-14.302c-8.223,3.854-18.84,6.252-31.857,7.451c-13.018,1.112-24.409,0.94-34.085-0.601
	c-1.542,4.539-2.826,8.563-3.939,11.989s-2.397,6.252-3.938,8.564c-1.542,3.083-2.655,4.967-3.34,5.736h-19.099L359.372,612.671
	L359.372,612.671z M526.027,513.415c-2.998,0-4.453,1.884-4.453,5.737c0,2.313,1.113,3.426,3.342,3.426
	c2.994,0,4.451-1.884,4.451-5.738C529.367,514.53,528.255,513.415,526.027,513.415z"/>
</svg>
